<svg xmlns="http://www.w3.org/2000/svg" xmlns:xlink="http://www.w3.org/1999/xlink" width="850" zoomAndPan="magnify" viewBox="0 0 637.5 477.749986" height="637" preserveAspectRatio="xMidYMid meet" version="1.2"><defs><clipPath id="558e545740"><path d="M 271.070312 14.183594 L 387.03125 14.183594 L 387.03125 130.144531 L 271.070312 130.144531 Z M 271.070312 14.183594 "/></clipPath><clipPath id="337e1af5d1"><path d="M 329.050781 14.183594 C 297.027344 14.183594 271.070312 40.144531 271.070312 72.164062 C 271.070312 104.1875 297.027344 130.144531 329.050781 130.144531 C 361.070312 130.144531 387.03125 104.1875 387.03125 72.164062 C 387.03125 40.144531 361.070312 14.183594 329.050781 14.183594 Z M 329.050781 14.183594 "/></clipPath><clipPath id="2f178d2400"><path d="M 475.460938 87.128906 L 591.421875 87.128906 L 591.421875 203.089844 L 475.460938 203.089844 Z M 475.460938 87.128906 "/></clipPath><clipPath id="c70329ce95"><path d="M 533.441406 87.128906 C 501.421875 87.128906 475.460938 113.089844 475.460938 145.109375 C 475.460938 177.132812 501.421875 203.089844 533.441406 203.089844 C 565.464844 203.089844 591.421875 177.132812 591.421875 145.109375 C 591.421875 113.089844 565.464844 87.128906 533.441406 87.128906 Z M 533.441406 87.128906 "/></clipPath><clipPath id="8f98aea560"><path d="M 477.597656 250.070312 L 593.558594 250.070312 L 593.558594 366.03125 L 477.597656 366.03125 Z M 477.597656 250.070312 "/></clipPath><clipPath id="7205fd69b3"><path d="M 535.578125 250.070312 C 503.554688 250.070312 477.597656 276.027344 477.597656 308.050781 C 477.597656 340.074219 503.554688 366.03125 535.578125 366.03125 C 567.601562 366.03125 593.558594 340.074219 593.558594 308.050781 C 593.558594 276.027344 567.601562 250.070312 535.578125 250.070312 Z M 535.578125 250.070312 "/></clipPath><clipPath id="2aae1bce41"><path d="M 271.070312 332.847656 L 387.03125 332.847656 L 387.03125 448.808594 L 271.070312 448.808594 Z M 271.070312 332.847656 "/></clipPath><clipPath id="192d2365e6"><path d="M 329.050781 332.847656 C 297.027344 332.847656 271.070312 358.804688 271.070312 390.828125 C 271.070312 422.851562 297.027344 448.808594 329.050781 448.808594 C 361.070312 448.808594 387.03125 422.851562 387.03125 390.828125 C 387.03125 358.804688 361.070312 332.847656 329.050781 332.847656 Z M 329.050781 332.847656 "/></clipPath><clipPath id="79deec3d6a"><path d="M 66.574219 87.859375 L 182.535156 87.859375 L 182.535156 203.820312 L 66.574219 203.820312 Z M 66.574219 87.859375 "/></clipPath><clipPath id="1f82d4c82b"><path d="M 124.554688 87.859375 C 92.53125 87.859375 66.574219 113.816406 66.574219 145.839844 C 66.574219 177.863281 92.53125 203.820312 124.554688 203.820312 C 156.574219 203.820312 182.535156 177.863281 182.535156 145.839844 C 182.535156 113.816406 156.574219 87.859375 124.554688 87.859375 Z M 124.554688 87.859375 "/></clipPath><clipPath id="6f9c3ee3f3"><path d="M 57.964844 250.070312 L 173.929688 250.070312 L 173.929688 366.03125 L 57.964844 366.03125 Z M 57.964844 250.070312 "/></clipPath><clipPath id="c525869b4c"><path d="M 115.949219 250.070312 C 83.925781 250.070312 57.964844 276.027344 57.964844 308.050781 C 57.964844 340.074219 83.925781 366.03125 115.949219 366.03125 C 147.96875 366.03125 173.929688 340.074219 173.929688 308.050781 C 173.929688 276.027344 147.96875 250.070312 115.949219 250.070312 Z M 115.949219 250.070312 "/></clipPath></defs><g id="00cbce68fd"><g clip-rule="nonzero" clip-path="url(#558e545740)"><g clip-rule="nonzero" clip-path="url(#337e1af5d1)"><path style=" stroke:none;fill-rule:nonzero;fill:#71dbf4;fill-opacity:1;" d="M 271.070312 14.183594 L 387.03125 14.183594 L 387.03125 130.144531 L 271.070312 130.144531 Z M 271.070312 14.183594 "/></g></g><g style="fill:#000000;fill-opacity:1;"><g transform="translate(296.890238, 77.785421)"><path style="stroke:none" d="M 11.421875 -13.5 L 11.421875 -4.609375 C 11.421875 -3.128906 10.957031 -1.957031 10.03125 -1.09375 C 9.113281 -0.238281 7.851562 0.1875 6.25 0.1875 C 4.675781 0.1875 3.425781 -0.226562 2.5 -1.0625 C 1.570312 -1.894531 1.097656 -3.039062 1.078125 -4.5 L 1.078125 -13.5 L 3.859375 -13.5 L 3.859375 -4.59375 C 3.859375 -3.707031 4.066406 -3.0625 4.484375 -2.65625 C 4.910156 -2.25 5.5 -2.046875 6.25 -2.046875 C 7.8125 -2.046875 8.601562 -2.867188 8.625 -4.515625 L 8.625 -13.5 Z M 11.421875 -13.5 "/></g></g><g style="fill:#000000;fill-opacity:1;"><g transform="translate(309.383727, 77.785421)"><path style="stroke:none" d="M 10.0625 -4.921875 C 10.0625 -3.378906 9.707031 -2.140625 9 -1.203125 C 8.300781 -0.273438 7.359375 0.1875 6.171875 0.1875 C 5.148438 0.1875 4.328125 -0.164062 3.703125 -0.875 L 3.703125 3.859375 L 1.03125 3.859375 L 1.03125 -10.03125 L 3.515625 -10.03125 L 3.609375 -9.046875 C 4.253906 -9.828125 5.097656 -10.21875 6.140625 -10.21875 C 7.378906 -10.21875 8.34375 -9.757812 9.03125 -8.84375 C 9.71875 -7.925781 10.0625 -6.664062 10.0625 -5.0625 Z M 7.375 -5.109375 C 7.375 -6.046875 7.207031 -6.765625 6.875 -7.265625 C 6.550781 -7.773438 6.070312 -8.03125 5.4375 -8.03125 C 4.601562 -8.03125 4.023438 -7.710938 3.703125 -7.078125 L 3.703125 -2.96875 C 4.035156 -2.300781 4.617188 -1.96875 5.453125 -1.96875 C 6.734375 -1.96875 7.375 -3.015625 7.375 -5.109375 Z M 7.375 -5.109375 "/></g></g><g style="fill:#000000;fill-opacity:1;"><g transform="translate(320.069929, 77.785421)"><path style="stroke:none" d="M 3.859375 0 L 1.171875 0 L 1.171875 -14.234375 L 3.859375 -14.234375 Z M 3.859375 0 "/></g></g><g style="fill:#000000;fill-opacity:1;"><g transform="translate(325.10255, 77.785421)"><path style="stroke:none" d="M 0.609375 -5.109375 C 0.609375 -6.097656 0.800781 -6.984375 1.1875 -7.765625 C 1.570312 -8.546875 2.125 -9.148438 2.84375 -9.578125 C 3.5625 -10.003906 4.394531 -10.21875 5.34375 -10.21875 C 6.695312 -10.21875 7.800781 -9.800781 8.65625 -8.96875 C 9.519531 -8.144531 10 -7.019531 10.09375 -5.59375 L 10.109375 -4.90625 C 10.109375 -3.375 9.675781 -2.140625 8.8125 -1.203125 C 7.957031 -0.273438 6.804688 0.1875 5.359375 0.1875 C 3.921875 0.1875 2.769531 -0.273438 1.90625 -1.203125 C 1.039062 -2.128906 0.609375 -3.390625 0.609375 -4.984375 Z M 3.296875 -4.90625 C 3.296875 -3.957031 3.472656 -3.226562 3.828125 -2.71875 C 4.179688 -2.21875 4.691406 -1.96875 5.359375 -1.96875 C 6.015625 -1.96875 6.523438 -2.21875 6.890625 -2.71875 C 7.253906 -3.21875 7.4375 -4.015625 7.4375 -5.109375 C 7.4375 -6.035156 7.253906 -6.753906 6.890625 -7.265625 C 6.523438 -7.785156 6.007812 -8.046875 5.34375 -8.046875 C 4.6875 -8.046875 4.179688 -7.789062 3.828125 -7.28125 C 3.472656 -6.769531 3.296875 -5.976562 3.296875 -4.90625 Z M 3.296875 -4.90625 "/></g></g><g style="fill:#000000;fill-opacity:1;"><g transform="translate(335.835087, 77.785421)"><path style="stroke:none" d="M 6.84375 0 C 6.71875 -0.238281 6.628906 -0.539062 6.578125 -0.90625 C 5.921875 -0.175781 5.078125 0.1875 4.046875 0.1875 C 3.054688 0.1875 2.238281 -0.09375 1.59375 -0.65625 C 0.945312 -1.226562 0.625 -1.945312 0.625 -2.8125 C 0.625 -3.875 1.019531 -4.691406 1.8125 -5.265625 C 2.601562 -5.835938 3.742188 -6.125 5.234375 -6.125 L 6.46875 -6.125 L 6.46875 -6.703125 C 6.46875 -7.160156 6.347656 -7.53125 6.109375 -7.8125 C 5.867188 -8.09375 5.492188 -8.234375 4.984375 -8.234375 C 4.523438 -8.234375 4.164062 -8.125 3.90625 -7.90625 C 3.65625 -7.6875 3.53125 -7.390625 3.53125 -7.015625 L 0.859375 -7.015625 C 0.859375 -7.597656 1.035156 -8.132812 1.390625 -8.625 C 1.742188 -9.125 2.25 -9.515625 2.90625 -9.796875 C 3.5625 -10.078125 4.296875 -10.21875 5.109375 -10.21875 C 6.347656 -10.21875 7.332031 -9.90625 8.0625 -9.28125 C 8.789062 -8.664062 9.15625 -7.796875 9.15625 -6.671875 L 9.15625 -2.3125 C 9.15625 -1.363281 9.285156 -0.644531 9.546875 -0.15625 L 9.546875 0 Z M 4.625 -1.859375 C 5.019531 -1.859375 5.382812 -1.945312 5.71875 -2.125 C 6.050781 -2.300781 6.300781 -2.539062 6.46875 -2.84375 L 6.46875 -4.5625 L 5.453125 -4.5625 C 4.117188 -4.5625 3.40625 -4.097656 3.3125 -3.171875 L 3.3125 -3.015625 C 3.3125 -2.679688 3.425781 -2.40625 3.65625 -2.1875 C 3.894531 -1.96875 4.21875 -1.859375 4.625 -1.859375 Z M 4.625 -1.859375 "/></g></g><g style="fill:#000000;fill-opacity:1;"><g transform="translate(346.011534, 77.785421)"><path style="stroke:none" d="M 0.609375 -5.09375 C 0.609375 -6.65625 0.957031 -7.898438 1.65625 -8.828125 C 2.363281 -9.753906 3.328125 -10.21875 4.546875 -10.21875 C 5.515625 -10.21875 6.320312 -9.851562 6.96875 -9.125 L 6.96875 -14.234375 L 9.65625 -14.234375 L 9.65625 0 L 7.234375 0 L 7.09375 -1.0625 C 6.425781 -0.226562 5.570312 0.1875 4.53125 0.1875 C 3.34375 0.1875 2.390625 -0.273438 1.671875 -1.203125 C 0.960938 -2.140625 0.609375 -3.4375 0.609375 -5.09375 Z M 3.296875 -4.890625 C 3.296875 -3.953125 3.457031 -3.234375 3.78125 -2.734375 C 4.101562 -2.234375 4.578125 -1.984375 5.203125 -1.984375 C 6.035156 -1.984375 6.625 -2.332031 6.96875 -3.03125 L 6.96875 -6.984375 C 6.632812 -7.679688 6.054688 -8.03125 5.234375 -8.03125 C 3.941406 -8.03125 3.296875 -6.984375 3.296875 -4.890625 Z M 3.296875 -4.890625 "/></g></g><g style="fill:#000000;fill-opacity:1;"><g transform="translate(356.714408, 77.785421)"><path style="stroke:none" d=""/></g></g><g clip-rule="nonzero" clip-path="url(#2f178d2400)"><g clip-rule="nonzero" clip-path="url(#c70329ce95)"><path style=" stroke:none;fill-rule:nonzero;fill:#71dbf4;fill-opacity:1;" d="M 475.460938 87.128906 L 591.421875 87.128906 L 591.421875 203.089844 L 475.460938 203.089844 Z M 475.460938 87.128906 "/></g></g><g style="fill:#000000;fill-opacity:1;"><g transform="translate(492.938353, 151.460481)"><path style="stroke:none" d="M 12.296875 -6.4375 C 12.296875 -5.113281 12.054688 -3.953125 11.578125 -2.953125 C 11.109375 -1.953125 10.4375 -1.175781 9.5625 -0.625 C 8.695312 -0.0820312 7.695312 0.1875 6.5625 0.1875 C 5.445312 0.1875 4.445312 -0.078125 3.5625 -0.609375 C 2.6875 -1.148438 2.007812 -1.921875 1.53125 -2.921875 C 1.050781 -3.921875 0.804688 -5.070312 0.796875 -6.375 L 0.796875 -7.03125 C 0.796875 -8.363281 1.035156 -9.535156 1.515625 -10.546875 C 1.992188 -11.554688 2.671875 -12.332031 3.546875 -12.875 C 4.421875 -13.414062 5.421875 -13.6875 6.546875 -13.6875 C 7.671875 -13.6875 8.671875 -13.414062 9.546875 -12.875 C 10.421875 -12.332031 11.097656 -11.554688 11.578125 -10.546875 C 12.054688 -9.535156 12.296875 -8.367188 12.296875 -7.046875 Z M 9.46875 -7.046875 C 9.46875 -8.460938 9.210938 -9.539062 8.703125 -10.28125 C 8.203125 -11.019531 7.484375 -11.390625 6.546875 -11.390625 C 5.609375 -11.390625 4.882812 -11.023438 4.375 -10.296875 C 3.875 -9.566406 3.617188 -8.5 3.609375 -7.09375 L 3.609375 -6.4375 C 3.609375 -5.0625 3.863281 -3.992188 4.375 -3.234375 C 4.882812 -2.472656 5.613281 -2.09375 6.5625 -2.09375 C 7.5 -2.09375 8.21875 -2.457031 8.71875 -3.1875 C 9.21875 -3.925781 9.46875 -4.992188 9.46875 -6.390625 Z M 9.46875 -7.046875 "/></g></g><g style="fill:#000000;fill-opacity:1;"><g transform="translate(506.043541, 151.460481)"><path style="stroke:none" d="M 6.671875 -7.515625 C 6.304688 -7.566406 5.984375 -7.59375 5.703125 -7.59375 C 4.691406 -7.59375 4.023438 -7.25 3.703125 -6.5625 L 3.703125 0 L 1.03125 0 L 1.03125 -10.03125 L 3.5625 -10.03125 L 3.640625 -8.828125 C 4.171875 -9.753906 4.914062 -10.21875 5.875 -10.21875 C 6.164062 -10.21875 6.441406 -10.175781 6.703125 -10.09375 Z M 6.671875 -7.515625 "/></g></g><g style="fill:#000000;fill-opacity:1;"><g transform="translate(512.790755, 151.460481)"><path style="stroke:none" d="M 0.640625 -5.09375 C 0.640625 -6.625 1.003906 -7.859375 1.734375 -8.796875 C 2.472656 -9.742188 3.460938 -10.21875 4.703125 -10.21875 C 5.796875 -10.21875 6.648438 -9.835938 7.265625 -9.078125 L 7.375 -10.03125 L 9.8125 -10.03125 L 9.8125 -0.328125 C 9.8125 0.546875 9.609375 1.304688 9.203125 1.953125 C 8.804688 2.597656 8.242188 3.09375 7.515625 3.4375 C 6.796875 3.78125 5.953125 3.953125 4.984375 3.953125 C 4.253906 3.953125 3.535156 3.800781 2.828125 3.5 C 2.128906 3.207031 1.601562 2.832031 1.25 2.375 L 2.4375 0.734375 C 3.101562 1.484375 3.910156 1.859375 4.859375 1.859375 C 5.578125 1.859375 6.132812 1.664062 6.53125 1.28125 C 6.925781 0.90625 7.125 0.367188 7.125 -0.328125 L 7.125 -0.859375 C 6.5 -0.160156 5.6875 0.1875 4.6875 0.1875 C 3.476562 0.1875 2.5 -0.28125 1.75 -1.21875 C 1.007812 -2.164062 0.640625 -3.421875 0.640625 -4.984375 Z M 3.3125 -4.890625 C 3.3125 -3.984375 3.492188 -3.269531 3.859375 -2.75 C 4.222656 -2.238281 4.722656 -1.984375 5.359375 -1.984375 C 6.179688 -1.984375 6.769531 -2.289062 7.125 -2.90625 L 7.125 -7.125 C 6.757812 -7.726562 6.179688 -8.03125 5.390625 -8.03125 C 4.742188 -8.03125 4.234375 -7.769531 3.859375 -7.25 C 3.492188 -6.726562 3.3125 -5.941406 3.3125 -4.890625 Z M 3.3125 -4.890625 "/></g></g><g style="fill:#000000;fill-opacity:1;"><g transform="translate(523.625248, 151.460481)"><path style="stroke:none" d="M 6.84375 0 C 6.71875 -0.238281 6.628906 -0.539062 6.578125 -0.90625 C 5.921875 -0.175781 5.078125 0.1875 4.046875 0.1875 C 3.054688 0.1875 2.238281 -0.09375 1.59375 -0.65625 C 0.945312 -1.226562 0.625 -1.945312 0.625 -2.8125 C 0.625 -3.875 1.019531 -4.691406 1.8125 -5.265625 C 2.601562 -5.835938 3.742188 -6.125 5.234375 -6.125 L 6.46875 -6.125 L 6.46875 -6.703125 C 6.46875 -7.160156 6.347656 -7.53125 6.109375 -7.8125 C 5.867188 -8.09375 5.492188 -8.234375 4.984375 -8.234375 C 4.523438 -8.234375 4.164062 -8.125 3.90625 -7.90625 C 3.65625 -7.6875 3.53125 -7.390625 3.53125 -7.015625 L 0.859375 -7.015625 C 0.859375 -7.597656 1.035156 -8.132812 1.390625 -8.625 C 1.742188 -9.125 2.25 -9.515625 2.90625 -9.796875 C 3.5625 -10.078125 4.296875 -10.21875 5.109375 -10.21875 C 6.347656 -10.21875 7.332031 -9.90625 8.0625 -9.28125 C 8.789062 -8.664062 9.15625 -7.796875 9.15625 -6.671875 L 9.15625 -2.3125 C 9.15625 -1.363281 9.285156 -0.644531 9.546875 -0.15625 L 9.546875 0 Z M 4.625 -1.859375 C 5.019531 -1.859375 5.382812 -1.945312 5.71875 -2.125 C 6.050781 -2.300781 6.300781 -2.539062 6.46875 -2.84375 L 6.46875 -4.5625 L 5.453125 -4.5625 C 4.117188 -4.5625 3.40625 -4.097656 3.3125 -3.171875 L 3.3125 -3.015625 C 3.3125 -2.679688 3.425781 -2.40625 3.65625 -2.1875 C 3.894531 -1.96875 4.21875 -1.859375 4.625 -1.859375 Z M 4.625 -1.859375 "/></g></g><g style="fill:#000000;fill-opacity:1;"><g transform="translate(533.801695, 151.460481)"><path style="stroke:none" d="M 3.5 -10.03125 L 3.578125 -8.875 C 4.296875 -9.769531 5.257812 -10.21875 6.46875 -10.21875 C 7.53125 -10.21875 8.316406 -9.90625 8.828125 -9.28125 C 9.347656 -8.65625 9.613281 -7.722656 9.625 -6.484375 L 9.625 0 L 6.953125 0 L 6.953125 -6.421875 C 6.953125 -6.984375 6.828125 -7.390625 6.578125 -7.640625 C 6.328125 -7.898438 5.914062 -8.03125 5.34375 -8.03125 C 4.59375 -8.03125 4.03125 -7.710938 3.65625 -7.078125 L 3.65625 0 L 0.96875 0 L 0.96875 -10.03125 Z M 3.5 -10.03125 "/></g></g><g style="fill:#000000;fill-opacity:1;"><g transform="translate(544.432288, 151.460481)"><path style="stroke:none" d="M 3.859375 0 L 1.171875 0 L 1.171875 -10.03125 L 3.859375 -10.03125 Z M 1.015625 -12.625 C 1.015625 -13.03125 1.144531 -13.359375 1.40625 -13.609375 C 1.675781 -13.867188 2.046875 -14 2.515625 -14 C 2.972656 -14 3.335938 -13.867188 3.609375 -13.609375 C 3.878906 -13.359375 4.015625 -13.03125 4.015625 -12.625 C 4.015625 -12.21875 3.875 -11.882812 3.59375 -11.625 C 3.320312 -11.363281 2.957031 -11.234375 2.5 -11.234375 C 2.050781 -11.234375 1.691406 -11.363281 1.421875 -11.625 C 1.148438 -11.882812 1.015625 -12.21875 1.015625 -12.625 Z M 1.015625 -12.625 "/></g></g><g style="fill:#000000;fill-opacity:1;"><g transform="translate(549.464908, 151.460481)"><path style="stroke:none" d="M 4.109375 -2.15625 L 9.015625 -2.15625 L 9.015625 0 L 0.6875 0 L 0.6875 -1.625 L 5.40625 -7.859375 L 0.828125 -7.859375 L 0.828125 -10.03125 L 8.859375 -10.03125 L 8.859375 -8.4375 Z M 4.109375 -2.15625 "/></g></g><g style="fill:#000000;fill-opacity:1;"><g transform="translate(558.974036, 151.460481)"><path style="stroke:none" d="M 5.640625 0.1875 C 4.171875 0.1875 2.972656 -0.257812 2.046875 -1.15625 C 1.128906 -2.0625 0.671875 -3.269531 0.671875 -4.78125 L 0.671875 -5.03125 C 0.671875 -6.039062 0.863281 -6.941406 1.25 -7.734375 C 1.632812 -8.523438 2.1875 -9.132812 2.90625 -9.5625 C 3.625 -10 4.4375 -10.21875 5.34375 -10.21875 C 6.71875 -10.21875 7.796875 -9.785156 8.578125 -8.921875 C 9.367188 -8.054688 9.765625 -6.828125 9.765625 -5.234375 L 9.765625 -4.140625 L 3.390625 -4.140625 C 3.472656 -3.484375 3.726562 -2.957031 4.15625 -2.5625 C 4.59375 -2.164062 5.148438 -1.96875 5.828125 -1.96875 C 6.859375 -1.96875 7.660156 -2.34375 8.234375 -3.09375 L 9.5625 -1.625 C 9.15625 -1.050781 8.609375 -0.601562 7.921875 -0.28125 C 7.234375 0.03125 6.472656 0.1875 5.640625 0.1875 Z M 5.34375 -8.046875 C 4.8125 -8.046875 4.378906 -7.863281 4.046875 -7.5 C 3.710938 -7.144531 3.5 -6.632812 3.40625 -5.96875 L 7.140625 -5.96875 L 7.140625 -6.1875 C 7.128906 -6.78125 6.96875 -7.238281 6.65625 -7.5625 C 6.34375 -7.882812 5.90625 -8.046875 5.34375 -8.046875 Z M 5.34375 -8.046875 "/></g></g><g style="fill:#000000;fill-opacity:1;"><g transform="translate(569.237882, 151.460481)"><path style="stroke:none" d=""/></g></g><g clip-rule="nonzero" clip-path="url(#8f98aea560)"><g clip-rule="nonzero" clip-path="url(#7205fd69b3)"><path style=" stroke:none;fill-rule:nonzero;fill:#71dbf4;fill-opacity:1;" d="M 477.597656 250.070312 L 593.558594 250.070312 L 593.558594 366.03125 L 477.597656 366.03125 Z M 477.597656 250.070312 "/></g></g><g style="fill:#000000;fill-opacity:1;"><g transform="translate(492.321125, 299.546204)"><path style="stroke:none" d="M 8.203125 -3.546875 C 8.203125 -4.066406 8.015625 -4.46875 7.640625 -4.75 C 7.273438 -5.03125 6.609375 -5.328125 5.640625 -5.640625 C 4.679688 -5.953125 3.921875 -6.257812 3.359375 -6.5625 C 1.828125 -7.394531 1.0625 -8.507812 1.0625 -9.90625 C 1.0625 -10.632812 1.265625 -11.285156 1.671875 -11.859375 C 2.085938 -12.429688 2.675781 -12.878906 3.4375 -13.203125 C 4.207031 -13.523438 5.070312 -13.6875 6.03125 -13.6875 C 7 -13.6875 7.859375 -13.507812 8.609375 -13.15625 C 9.367188 -12.8125 9.957031 -12.316406 10.375 -11.671875 C 10.789062 -11.035156 11 -10.316406 11 -9.515625 L 8.21875 -9.515625 C 8.21875 -10.128906 8.019531 -10.609375 7.625 -10.953125 C 7.238281 -11.296875 6.691406 -11.46875 5.984375 -11.46875 C 5.304688 -11.46875 4.78125 -11.320312 4.40625 -11.03125 C 4.03125 -10.75 3.84375 -10.375 3.84375 -9.90625 C 3.84375 -9.457031 4.0625 -9.085938 4.5 -8.796875 C 4.9375 -8.503906 5.585938 -8.226562 6.453125 -7.96875 C 8.035156 -7.488281 9.1875 -6.894531 9.90625 -6.1875 C 10.632812 -5.488281 11 -4.613281 11 -3.5625 C 11 -2.394531 10.554688 -1.476562 9.671875 -0.8125 C 8.785156 -0.144531 7.59375 0.1875 6.09375 0.1875 C 5.0625 0.1875 4.117188 0 3.265625 -0.375 C 2.410156 -0.757812 1.757812 -1.28125 1.3125 -1.9375 C 0.863281 -2.601562 0.640625 -3.375 0.640625 -4.25 L 3.4375 -4.25 C 3.4375 -2.757812 4.320312 -2.015625 6.09375 -2.015625 C 6.757812 -2.015625 7.273438 -2.144531 7.640625 -2.40625 C 8.015625 -2.675781 8.203125 -3.054688 8.203125 -3.546875 Z M 8.203125 -3.546875 "/></g></g><g style="fill:#000000;fill-opacity:1;"><g transform="translate(503.989752, 299.546204)"><path style="stroke:none" d="M 4.234375 -12.5 L 4.234375 -10.03125 L 5.953125 -10.03125 L 5.953125 -8.0625 L 4.234375 -8.0625 L 4.234375 -3.0625 C 4.234375 -2.6875 4.300781 -2.414062 4.4375 -2.25 C 4.582031 -2.09375 4.859375 -2.015625 5.265625 -2.015625 C 5.554688 -2.015625 5.816406 -2.035156 6.046875 -2.078125 L 6.046875 -0.0625 C 5.523438 0.101562 4.988281 0.1875 4.4375 0.1875 C 2.550781 0.1875 1.59375 -0.757812 1.5625 -2.65625 L 1.5625 -8.0625 L 0.09375 -8.0625 L 0.09375 -10.03125 L 1.5625 -10.03125 L 1.5625 -12.5 Z M 4.234375 -12.5 "/></g></g><g style="fill:#000000;fill-opacity:1;"><g transform="translate(510.125256, 299.546204)"><path style="stroke:none" d="M 0.609375 -5.109375 C 0.609375 -6.097656 0.800781 -6.984375 1.1875 -7.765625 C 1.570312 -8.546875 2.125 -9.148438 2.84375 -9.578125 C 3.5625 -10.003906 4.394531 -10.21875 5.34375 -10.21875 C 6.695312 -10.21875 7.800781 -9.800781 8.65625 -8.96875 C 9.519531 -8.144531 10 -7.019531 10.09375 -5.59375 L 10.109375 -4.90625 C 10.109375 -3.375 9.675781 -2.140625 8.8125 -1.203125 C 7.957031 -0.273438 6.804688 0.1875 5.359375 0.1875 C 3.921875 0.1875 2.769531 -0.273438 1.90625 -1.203125 C 1.039062 -2.128906 0.609375 -3.390625 0.609375 -4.984375 Z M 3.296875 -4.90625 C 3.296875 -3.957031 3.472656 -3.226562 3.828125 -2.71875 C 4.179688 -2.21875 4.691406 -1.96875 5.359375 -1.96875 C 6.015625 -1.96875 6.523438 -2.21875 6.890625 -2.71875 C 7.253906 -3.21875 7.4375 -4.015625 7.4375 -5.109375 C 7.4375 -6.035156 7.253906 -6.753906 6.890625 -7.265625 C 6.523438 -7.785156 6.007812 -8.046875 5.34375 -8.046875 C 4.6875 -8.046875 4.179688 -7.789062 3.828125 -7.28125 C 3.472656 -6.769531 3.296875 -5.976562 3.296875 -4.90625 Z M 3.296875 -4.90625 "/></g></g><g style="fill:#000000;fill-opacity:1;"><g transform="translate(520.857793, 299.546204)"><path style="stroke:none" d="M 6.671875 -7.515625 C 6.304688 -7.566406 5.984375 -7.59375 5.703125 -7.59375 C 4.691406 -7.59375 4.023438 -7.25 3.703125 -6.5625 L 3.703125 0 L 1.03125 0 L 1.03125 -10.03125 L 3.5625 -10.03125 L 3.640625 -8.828125 C 4.171875 -9.753906 4.914062 -10.21875 5.875 -10.21875 C 6.164062 -10.21875 6.441406 -10.175781 6.703125 -10.09375 Z M 6.671875 -7.515625 "/></g></g><g style="fill:#000000;fill-opacity:1;"><g transform="translate(527.605007, 299.546204)"><path style="stroke:none" d="M 5.640625 0.1875 C 4.171875 0.1875 2.972656 -0.257812 2.046875 -1.15625 C 1.128906 -2.0625 0.671875 -3.269531 0.671875 -4.78125 L 0.671875 -5.03125 C 0.671875 -6.039062 0.863281 -6.941406 1.25 -7.734375 C 1.632812 -8.523438 2.1875 -9.132812 2.90625 -9.5625 C 3.625 -10 4.4375 -10.21875 5.34375 -10.21875 C 6.71875 -10.21875 7.796875 -9.785156 8.578125 -8.921875 C 9.367188 -8.054688 9.765625 -6.828125 9.765625 -5.234375 L 9.765625 -4.140625 L 3.390625 -4.140625 C 3.472656 -3.484375 3.726562 -2.957031 4.15625 -2.5625 C 4.59375 -2.164062 5.148438 -1.96875 5.828125 -1.96875 C 6.859375 -1.96875 7.660156 -2.34375 8.234375 -3.09375 L 9.5625 -1.625 C 9.15625 -1.050781 8.609375 -0.601562 7.921875 -0.28125 C 7.234375 0.03125 6.472656 0.1875 5.640625 0.1875 Z M 5.34375 -8.046875 C 4.8125 -8.046875 4.378906 -7.863281 4.046875 -7.5 C 3.710938 -7.144531 3.5 -6.632812 3.40625 -5.96875 L 7.140625 -5.96875 L 7.140625 -6.1875 C 7.128906 -6.78125 6.96875 -7.238281 6.65625 -7.5625 C 6.34375 -7.882812 5.90625 -8.046875 5.34375 -8.046875 Z M 5.34375 -8.046875 "/></g></g><g style="fill:#000000;fill-opacity:1;"><g transform="translate(537.864874, 299.546204)"><path style="stroke:none" d=""/></g></g><g style="fill:#000000;fill-opacity:1;"><g transform="translate(542.591639, 299.546204)"><path style="stroke:none" d="M 6.84375 0 C 6.71875 -0.238281 6.628906 -0.539062 6.578125 -0.90625 C 5.921875 -0.175781 5.078125 0.1875 4.046875 0.1875 C 3.054688 0.1875 2.238281 -0.09375 1.59375 -0.65625 C 0.945312 -1.226562 0.625 -1.945312 0.625 -2.8125 C 0.625 -3.875 1.019531 -4.691406 1.8125 -5.265625 C 2.601562 -5.835938 3.742188 -6.125 5.234375 -6.125 L 6.46875 -6.125 L 6.46875 -6.703125 C 6.46875 -7.160156 6.347656 -7.53125 6.109375 -7.8125 C 5.867188 -8.09375 5.492188 -8.234375 4.984375 -8.234375 C 4.523438 -8.234375 4.164062 -8.125 3.90625 -7.90625 C 3.65625 -7.6875 3.53125 -7.390625 3.53125 -7.015625 L 0.859375 -7.015625 C 0.859375 -7.597656 1.035156 -8.132812 1.390625 -8.625 C 1.742188 -9.125 2.25 -9.515625 2.90625 -9.796875 C 3.5625 -10.078125 4.296875 -10.21875 5.109375 -10.21875 C 6.347656 -10.21875 7.332031 -9.90625 8.0625 -9.28125 C 8.789062 -8.664062 9.15625 -7.796875 9.15625 -6.671875 L 9.15625 -2.3125 C 9.15625 -1.363281 9.285156 -0.644531 9.546875 -0.15625 L 9.546875 0 Z M 4.625 -1.859375 C 5.019531 -1.859375 5.382812 -1.945312 5.71875 -2.125 C 6.050781 -2.300781 6.300781 -2.539062 6.46875 -2.84375 L 6.46875 -4.5625 L 5.453125 -4.5625 C 4.117188 -4.5625 3.40625 -4.097656 3.3125 -3.171875 L 3.3125 -3.015625 C 3.3125 -2.679688 3.425781 -2.40625 3.65625 -2.1875 C 3.894531 -1.96875 4.21875 -1.859375 4.625 -1.859375 Z M 4.625 -1.859375 "/></g></g><g style="fill:#000000;fill-opacity:1;"><g transform="translate(552.768086, 299.546204)"><path style="stroke:none" d="M 3.5 -10.03125 L 3.578125 -8.875 C 4.296875 -9.769531 5.257812 -10.21875 6.46875 -10.21875 C 7.53125 -10.21875 8.316406 -9.90625 8.828125 -9.28125 C 9.347656 -8.65625 9.613281 -7.722656 9.625 -6.484375 L 9.625 0 L 6.953125 0 L 6.953125 -6.421875 C 6.953125 -6.984375 6.828125 -7.390625 6.578125 -7.640625 C 6.328125 -7.898438 5.914062 -8.03125 5.34375 -8.03125 C 4.59375 -8.03125 4.03125 -7.710938 3.65625 -7.078125 L 3.65625 0 L 0.96875 0 L 0.96875 -10.03125 Z M 3.5 -10.03125 "/></g></g><g style="fill:#000000;fill-opacity:1;"><g transform="translate(563.398679, 299.546204)"><path style="stroke:none" d="M 0.609375 -5.09375 C 0.609375 -6.65625 0.957031 -7.898438 1.65625 -8.828125 C 2.363281 -9.753906 3.328125 -10.21875 4.546875 -10.21875 C 5.515625 -10.21875 6.320312 -9.851562 6.96875 -9.125 L 6.96875 -14.234375 L 9.65625 -14.234375 L 9.65625 0 L 7.234375 0 L 7.09375 -1.0625 C 6.425781 -0.226562 5.570312 0.1875 4.53125 0.1875 C 3.34375 0.1875 2.390625 -0.273438 1.671875 -1.203125 C 0.960938 -2.140625 0.609375 -3.4375 0.609375 -5.09375 Z M 3.296875 -4.890625 C 3.296875 -3.953125 3.457031 -3.234375 3.78125 -2.734375 C 4.101562 -2.234375 4.578125 -1.984375 5.203125 -1.984375 C 6.035156 -1.984375 6.625 -2.332031 6.96875 -3.03125 L 6.96875 -6.984375 C 6.632812 -7.679688 6.054688 -8.03125 5.234375 -8.03125 C 3.941406 -8.03125 3.296875 -6.984375 3.296875 -4.890625 Z M 3.296875 -4.890625 "/></g></g><g style="fill:#000000;fill-opacity:1;"><g transform="translate(574.10073, 299.546204)"><path style="stroke:none" d=""/></g></g><g style="fill:#000000;fill-opacity:1;"><g transform="translate(502.9417, 325.775631)"><path style="stroke:none" d="M 6.671875 -7.515625 C 6.304688 -7.566406 5.984375 -7.59375 5.703125 -7.59375 C 4.691406 -7.59375 4.023438 -7.25 3.703125 -6.5625 L 3.703125 0 L 1.03125 0 L 1.03125 -10.03125 L 3.5625 -10.03125 L 3.640625 -8.828125 C 4.171875 -9.753906 4.914062 -10.21875 5.875 -10.21875 C 6.164062 -10.21875 6.441406 -10.175781 6.703125 -10.09375 Z M 6.671875 -7.515625 "/></g></g><g style="fill:#000000;fill-opacity:1;"><g transform="translate(509.688915, 325.775631)"><path style="stroke:none" d="M 5.640625 0.1875 C 4.171875 0.1875 2.972656 -0.257812 2.046875 -1.15625 C 1.128906 -2.0625 0.671875 -3.269531 0.671875 -4.78125 L 0.671875 -5.03125 C 0.671875 -6.039062 0.863281 -6.941406 1.25 -7.734375 C 1.632812 -8.523438 2.1875 -9.132812 2.90625 -9.5625 C 3.625 -10 4.4375 -10.21875 5.34375 -10.21875 C 6.71875 -10.21875 7.796875 -9.785156 8.578125 -8.921875 C 9.367188 -8.054688 9.765625 -6.828125 9.765625 -5.234375 L 9.765625 -4.140625 L 3.390625 -4.140625 C 3.472656 -3.484375 3.726562 -2.957031 4.15625 -2.5625 C 4.59375 -2.164062 5.148438 -1.96875 5.828125 -1.96875 C 6.859375 -1.96875 7.660156 -2.34375 8.234375 -3.09375 L 9.5625 -1.625 C 9.15625 -1.050781 8.609375 -0.601562 7.921875 -0.28125 C 7.234375 0.03125 6.472656 0.1875 5.640625 0.1875 Z M 5.34375 -8.046875 C 4.8125 -8.046875 4.378906 -7.863281 4.046875 -7.5 C 3.710938 -7.144531 3.5 -6.632812 3.40625 -5.96875 L 7.140625 -5.96875 L 7.140625 -6.1875 C 7.128906 -6.78125 6.96875 -7.238281 6.65625 -7.5625 C 6.34375 -7.882812 5.90625 -8.046875 5.34375 -8.046875 Z M 5.34375 -8.046875 "/></g></g><g style="fill:#000000;fill-opacity:1;"><g transform="translate(519.948781, 325.775631)"><path style="stroke:none" d="M 4.234375 -12.5 L 4.234375 -10.03125 L 5.953125 -10.03125 L 5.953125 -8.0625 L 4.234375 -8.0625 L 4.234375 -3.0625 C 4.234375 -2.6875 4.300781 -2.414062 4.4375 -2.25 C 4.582031 -2.09375 4.859375 -2.015625 5.265625 -2.015625 C 5.554688 -2.015625 5.816406 -2.035156 6.046875 -2.078125 L 6.046875 -0.0625 C 5.523438 0.101562 4.988281 0.1875 4.4375 0.1875 C 2.550781 0.1875 1.59375 -0.757812 1.5625 -2.65625 L 1.5625 -8.0625 L 0.09375 -8.0625 L 0.09375 -10.03125 L 1.5625 -10.03125 L 1.5625 -12.5 Z M 4.234375 -12.5 "/></g></g><g style="fill:#000000;fill-opacity:1;"><g transform="translate(526.362352, 325.775631)"><path style="stroke:none" d="M 6.671875 -7.515625 C 6.304688 -7.566406 5.984375 -7.59375 5.703125 -7.59375 C 4.691406 -7.59375 4.023438 -7.25 3.703125 -6.5625 L 3.703125 0 L 1.03125 0 L 1.03125 -10.03125 L 3.5625 -10.03125 L 3.640625 -8.828125 C 4.171875 -9.753906 4.914062 -10.21875 5.875 -10.21875 C 6.164062 -10.21875 6.441406 -10.175781 6.703125 -10.09375 Z M 6.671875 -7.515625 "/></g></g><g style="fill:#000000;fill-opacity:1;"><g transform="translate(533.285679, 325.775631)"><path style="stroke:none" d="M 3.859375 0 L 1.171875 0 L 1.171875 -10.03125 L 3.859375 -10.03125 Z M 1.015625 -12.625 C 1.015625 -13.03125 1.144531 -13.359375 1.40625 -13.609375 C 1.675781 -13.867188 2.046875 -14 2.515625 -14 C 2.972656 -14 3.335938 -13.867188 3.609375 -13.609375 C 3.878906 -13.359375 4.015625 -13.03125 4.015625 -12.625 C 4.015625 -12.21875 3.875 -11.882812 3.59375 -11.625 C 3.320312 -11.363281 2.957031 -11.234375 2.5 -11.234375 C 2.050781 -11.234375 1.691406 -11.363281 1.421875 -11.625 C 1.148438 -11.882812 1.015625 -12.21875 1.015625 -12.625 Z M 1.015625 -12.625 "/></g></g><g style="fill:#000000;fill-opacity:1;"><g transform="translate(538.318299, 325.775631)"><path style="stroke:none" d="M 5.640625 0.1875 C 4.171875 0.1875 2.972656 -0.257812 2.046875 -1.15625 C 1.128906 -2.0625 0.671875 -3.269531 0.671875 -4.78125 L 0.671875 -5.03125 C 0.671875 -6.039062 0.863281 -6.941406 1.25 -7.734375 C 1.632812 -8.523438 2.1875 -9.132812 2.90625 -9.5625 C 3.625 -10 4.4375 -10.21875 5.34375 -10.21875 C 6.71875 -10.21875 7.796875 -9.785156 8.578125 -8.921875 C 9.367188 -8.054688 9.765625 -6.828125 9.765625 -5.234375 L 9.765625 -4.140625 L 3.390625 -4.140625 C 3.472656 -3.484375 3.726562 -2.957031 4.15625 -2.5625 C 4.59375 -2.164062 5.148438 -1.96875 5.828125 -1.96875 C 6.859375 -1.96875 7.660156 -2.34375 8.234375 -3.09375 L 9.5625 -1.625 C 9.15625 -1.050781 8.609375 -0.601562 7.921875 -0.28125 C 7.234375 0.03125 6.472656 0.1875 5.640625 0.1875 Z M 5.34375 -8.046875 C 4.8125 -8.046875 4.378906 -7.863281 4.046875 -7.5 C 3.710938 -7.144531 3.5 -6.632812 3.40625 -5.96875 L 7.140625 -5.96875 L 7.140625 -6.1875 C 7.128906 -6.78125 6.96875 -7.238281 6.65625 -7.5625 C 6.34375 -7.882812 5.90625 -8.046875 5.34375 -8.046875 Z M 5.34375 -8.046875 "/></g></g><g style="fill:#000000;fill-opacity:1;"><g transform="translate(548.457674, 325.775631)"><path style="stroke:none" d="M 4.78125 -3.265625 L 6.640625 -10.03125 L 9.453125 -10.03125 L 6.0625 0 L 3.5 0 L 0.125 -10.03125 L 2.921875 -10.03125 Z M 4.78125 -3.265625 "/></g></g><g style="fill:#000000;fill-opacity:1;"><g transform="translate(557.92974, 325.775631)"><path style="stroke:none" d="M 5.640625 0.1875 C 4.171875 0.1875 2.972656 -0.257812 2.046875 -1.15625 C 1.128906 -2.0625 0.671875 -3.269531 0.671875 -4.78125 L 0.671875 -5.03125 C 0.671875 -6.039062 0.863281 -6.941406 1.25 -7.734375 C 1.632812 -8.523438 2.1875 -9.132812 2.90625 -9.5625 C 3.625 -10 4.4375 -10.21875 5.34375 -10.21875 C 6.71875 -10.21875 7.796875 -9.785156 8.578125 -8.921875 C 9.367188 -8.054688 9.765625 -6.828125 9.765625 -5.234375 L 9.765625 -4.140625 L 3.390625 -4.140625 C 3.472656 -3.484375 3.726562 -2.957031 4.15625 -2.5625 C 4.59375 -2.164062 5.148438 -1.96875 5.828125 -1.96875 C 6.859375 -1.96875 7.660156 -2.34375 8.234375 -3.09375 L 9.5625 -1.625 C 9.15625 -1.050781 8.609375 -0.601562 7.921875 -0.28125 C 7.234375 0.03125 6.472656 0.1875 5.640625 0.1875 Z M 5.34375 -8.046875 C 4.8125 -8.046875 4.378906 -7.863281 4.046875 -7.5 C 3.710938 -7.144531 3.5 -6.632812 3.40625 -5.96875 L 7.140625 -5.96875 L 7.140625 -6.1875 C 7.128906 -6.78125 6.96875 -7.238281 6.65625 -7.5625 C 6.34375 -7.882812 5.90625 -8.046875 5.34375 -8.046875 Z M 5.34375 -8.046875 "/></g></g><g clip-rule="nonzero" clip-path="url(#2aae1bce41)"><g clip-rule="nonzero" clip-path="url(#192d2365e6)"><path style=" stroke:none;fill-rule:nonzero;fill:#71dbf4;fill-opacity:1;" d="M 271.070312 332.847656 L 387.03125 332.847656 L 387.03125 448.808594 L 271.070312 448.808594 Z M 271.070312 332.847656 "/></g></g><g style="fill:#000000;fill-opacity:1;"><g transform="translate(294.685649, 396.448918)"><path style="stroke:none" d="M 4.84375 -13.5 L 8.3125 -3.703125 L 11.75 -13.5 L 15.40625 -13.5 L 15.40625 0 L 12.609375 0 L 12.609375 -3.6875 L 12.890625 -10.0625 L 9.25 0 L 7.34375 0 L 3.703125 -10.046875 L 3.984375 -3.6875 L 3.984375 0 L 1.203125 0 L 1.203125 -13.5 Z M 4.84375 -13.5 "/></g></g><g style="fill:#000000;fill-opacity:1;"><g transform="translate(311.31274, 396.448918)"><path style="stroke:none" d="M 6.84375 0 C 6.71875 -0.238281 6.628906 -0.539062 6.578125 -0.90625 C 5.921875 -0.175781 5.078125 0.1875 4.046875 0.1875 C 3.054688 0.1875 2.238281 -0.09375 1.59375 -0.65625 C 0.945312 -1.226562 0.625 -1.945312 0.625 -2.8125 C 0.625 -3.875 1.019531 -4.691406 1.8125 -5.265625 C 2.601562 -5.835938 3.742188 -6.125 5.234375 -6.125 L 6.46875 -6.125 L 6.46875 -6.703125 C 6.46875 -7.160156 6.347656 -7.53125 6.109375 -7.8125 C 5.867188 -8.09375 5.492188 -8.234375 4.984375 -8.234375 C 4.523438 -8.234375 4.164062 -8.125 3.90625 -7.90625 C 3.65625 -7.6875 3.53125 -7.390625 3.53125 -7.015625 L 0.859375 -7.015625 C 0.859375 -7.597656 1.035156 -8.132812 1.390625 -8.625 C 1.742188 -9.125 2.25 -9.515625 2.90625 -9.796875 C 3.5625 -10.078125 4.296875 -10.21875 5.109375 -10.21875 C 6.347656 -10.21875 7.332031 -9.90625 8.0625 -9.28125 C 8.789062 -8.664062 9.15625 -7.796875 9.15625 -6.671875 L 9.15625 -2.3125 C 9.15625 -1.363281 9.285156 -0.644531 9.546875 -0.15625 L 9.546875 0 Z M 4.625 -1.859375 C 5.019531 -1.859375 5.382812 -1.945312 5.71875 -2.125 C 6.050781 -2.300781 6.300781 -2.539062 6.46875 -2.84375 L 6.46875 -4.5625 L 5.453125 -4.5625 C 4.117188 -4.5625 3.40625 -4.097656 3.3125 -3.171875 L 3.3125 -3.015625 C 3.3125 -2.679688 3.425781 -2.40625 3.65625 -2.1875 C 3.894531 -1.96875 4.21875 -1.859375 4.625 -1.859375 Z M 4.625 -1.859375 "/></g></g><g style="fill:#000000;fill-opacity:1;"><g transform="translate(321.489188, 396.448918)"><path style="stroke:none" d="M 3.5 -10.03125 L 3.578125 -8.875 C 4.296875 -9.769531 5.257812 -10.21875 6.46875 -10.21875 C 7.53125 -10.21875 8.316406 -9.90625 8.828125 -9.28125 C 9.347656 -8.65625 9.613281 -7.722656 9.625 -6.484375 L 9.625 0 L 6.953125 0 L 6.953125 -6.421875 C 6.953125 -6.984375 6.828125 -7.390625 6.578125 -7.640625 C 6.328125 -7.898438 5.914062 -8.03125 5.34375 -8.03125 C 4.59375 -8.03125 4.03125 -7.710938 3.65625 -7.078125 L 3.65625 0 L 0.96875 0 L 0.96875 -10.03125 Z M 3.5 -10.03125 "/></g></g><g style="fill:#000000;fill-opacity:1;"><g transform="translate(332.119781, 396.448918)"><path style="stroke:none" d="M 6.84375 0 C 6.71875 -0.238281 6.628906 -0.539062 6.578125 -0.90625 C 5.921875 -0.175781 5.078125 0.1875 4.046875 0.1875 C 3.054688 0.1875 2.238281 -0.09375 1.59375 -0.65625 C 0.945312 -1.226562 0.625 -1.945312 0.625 -2.8125 C 0.625 -3.875 1.019531 -4.691406 1.8125 -5.265625 C 2.601562 -5.835938 3.742188 -6.125 5.234375 -6.125 L 6.46875 -6.125 L 6.46875 -6.703125 C 6.46875 -7.160156 6.347656 -7.53125 6.109375 -7.8125 C 5.867188 -8.09375 5.492188 -8.234375 4.984375 -8.234375 C 4.523438 -8.234375 4.164062 -8.125 3.90625 -7.90625 C 3.65625 -7.6875 3.53125 -7.390625 3.53125 -7.015625 L 0.859375 -7.015625 C 0.859375 -7.597656 1.035156 -8.132812 1.390625 -8.625 C 1.742188 -9.125 2.25 -9.515625 2.90625 -9.796875 C 3.5625 -10.078125 4.296875 -10.21875 5.109375 -10.21875 C 6.347656 -10.21875 7.332031 -9.90625 8.0625 -9.28125 C 8.789062 -8.664062 9.15625 -7.796875 9.15625 -6.671875 L 9.15625 -2.3125 C 9.15625 -1.363281 9.285156 -0.644531 9.546875 -0.15625 L 9.546875 0 Z M 4.625 -1.859375 C 5.019531 -1.859375 5.382812 -1.945312 5.71875 -2.125 C 6.050781 -2.300781 6.300781 -2.539062 6.46875 -2.84375 L 6.46875 -4.5625 L 5.453125 -4.5625 C 4.117188 -4.5625 3.40625 -4.097656 3.3125 -3.171875 L 3.3125 -3.015625 C 3.3125 -2.679688 3.425781 -2.40625 3.65625 -2.1875 C 3.894531 -1.96875 4.21875 -1.859375 4.625 -1.859375 Z M 4.625 -1.859375 "/></g></g><g style="fill:#000000;fill-opacity:1;"><g transform="translate(342.296228, 396.448918)"><path style="stroke:none" d="M 0.640625 -5.09375 C 0.640625 -6.625 1.003906 -7.859375 1.734375 -8.796875 C 2.472656 -9.742188 3.460938 -10.21875 4.703125 -10.21875 C 5.796875 -10.21875 6.648438 -9.835938 7.265625 -9.078125 L 7.375 -10.03125 L 9.8125 -10.03125 L 9.8125 -0.328125 C 9.8125 0.546875 9.609375 1.304688 9.203125 1.953125 C 8.804688 2.597656 8.242188 3.09375 7.515625 3.4375 C 6.796875 3.78125 5.953125 3.953125 4.984375 3.953125 C 4.253906 3.953125 3.535156 3.800781 2.828125 3.5 C 2.128906 3.207031 1.601562 2.832031 1.25 2.375 L 2.4375 0.734375 C 3.101562 1.484375 3.910156 1.859375 4.859375 1.859375 C 5.578125 1.859375 6.132812 1.664062 6.53125 1.28125 C 6.925781 0.90625 7.125 0.367188 7.125 -0.328125 L 7.125 -0.859375 C 6.5 -0.160156 5.6875 0.1875 4.6875 0.1875 C 3.476562 0.1875 2.5 -0.28125 1.75 -1.21875 C 1.007812 -2.164062 0.640625 -3.421875 0.640625 -4.984375 Z M 3.3125 -4.890625 C 3.3125 -3.984375 3.492188 -3.269531 3.859375 -2.75 C 4.222656 -2.238281 4.722656 -1.984375 5.359375 -1.984375 C 6.179688 -1.984375 6.769531 -2.289062 7.125 -2.90625 L 7.125 -7.125 C 6.757812 -7.726562 6.179688 -8.03125 5.390625 -8.03125 C 4.742188 -8.03125 4.234375 -7.769531 3.859375 -7.25 C 3.492188 -6.726562 3.3125 -5.941406 3.3125 -4.890625 Z M 3.3125 -4.890625 "/></g></g><g style="fill:#000000;fill-opacity:1;"><g transform="translate(353.130721, 396.448918)"><path style="stroke:none" d="M 5.640625 0.1875 C 4.171875 0.1875 2.972656 -0.257812 2.046875 -1.15625 C 1.128906 -2.0625 0.671875 -3.269531 0.671875 -4.78125 L 0.671875 -5.03125 C 0.671875 -6.039062 0.863281 -6.941406 1.25 -7.734375 C 1.632812 -8.523438 2.1875 -9.132812 2.90625 -9.5625 C 3.625 -10 4.4375 -10.21875 5.34375 -10.21875 C 6.71875 -10.21875 7.796875 -9.785156 8.578125 -8.921875 C 9.367188 -8.054688 9.765625 -6.828125 9.765625 -5.234375 L 9.765625 -4.140625 L 3.390625 -4.140625 C 3.472656 -3.484375 3.726562 -2.957031 4.15625 -2.5625 C 4.59375 -2.164062 5.148438 -1.96875 5.828125 -1.96875 C 6.859375 -1.96875 7.660156 -2.34375 8.234375 -3.09375 L 9.5625 -1.625 C 9.15625 -1.050781 8.609375 -0.601562 7.921875 -0.28125 C 7.234375 0.03125 6.472656 0.1875 5.640625 0.1875 Z M 5.34375 -8.046875 C 4.8125 -8.046875 4.378906 -7.863281 4.046875 -7.5 C 3.710938 -7.144531 3.5 -6.632812 3.40625 -5.96875 L 7.140625 -5.96875 L 7.140625 -6.1875 C 7.128906 -6.78125 6.96875 -7.238281 6.65625 -7.5625 C 6.34375 -7.882812 5.90625 -8.046875 5.34375 -8.046875 Z M 5.34375 -8.046875 "/></g></g><g clip-rule="nonzero" clip-path="url(#79deec3d6a)"><g clip-rule="nonzero" clip-path="url(#1f82d4c82b)"><path style=" stroke:none;fill-rule:nonzero;fill:#71dbf4;fill-opacity:1;" d="M 66.574219 87.859375 L 182.535156 87.859375 L 182.535156 203.820312 L 66.574219 203.820312 Z M 66.574219 87.859375 "/></g></g><g style="fill:#000000;fill-opacity:1;"><g transform="translate(92.543808, 150.730813)"><path style="stroke:none" d="M 3.984375 -4.75 L 3.984375 0 L 1.203125 0 L 1.203125 -13.5 L 6.46875 -13.5 C 7.476562 -13.5 8.367188 -13.3125 9.140625 -12.9375 C 9.910156 -12.570312 10.503906 -12.046875 10.921875 -11.359375 C 11.335938 -10.671875 11.546875 -9.894531 11.546875 -9.03125 C 11.546875 -7.707031 11.09375 -6.660156 10.1875 -5.890625 C 9.28125 -5.128906 8.023438 -4.75 6.421875 -4.75 Z M 3.984375 -7.015625 L 6.46875 -7.015625 C 7.207031 -7.015625 7.769531 -7.1875 8.15625 -7.53125 C 8.539062 -7.875 8.734375 -8.367188 8.734375 -9.015625 C 8.734375 -9.671875 8.535156 -10.203125 8.140625 -10.609375 C 7.753906 -11.015625 7.21875 -11.226562 6.53125 -11.25 L 3.984375 -11.25 Z M 3.984375 -7.015625 "/></g></g><g style="fill:#000000;fill-opacity:1;"><g transform="translate(104.787062, 150.730813)"><path style="stroke:none" d="M 7.03125 -1.015625 C 6.375 -0.210938 5.460938 0.1875 4.296875 0.1875 C 3.210938 0.1875 2.390625 -0.117188 1.828125 -0.734375 C 1.265625 -1.359375 0.976562 -2.265625 0.96875 -3.453125 L 0.96875 -10.03125 L 3.640625 -10.03125 L 3.640625 -3.546875 C 3.640625 -2.503906 4.117188 -1.984375 5.078125 -1.984375 C 5.984375 -1.984375 6.601562 -2.296875 6.9375 -2.921875 L 6.9375 -10.03125 L 9.625 -10.03125 L 9.625 0 L 7.109375 0 Z M 7.03125 -1.015625 "/></g></g><g style="fill:#000000;fill-opacity:1;"><g transform="translate(115.408381, 150.730813)"><path style="stroke:none" d="M 10.0625 -4.921875 C 10.0625 -3.316406 9.71875 -2.0625 9.03125 -1.15625 C 8.351562 -0.257812 7.398438 0.1875 6.171875 0.1875 C 5.078125 0.1875 4.207031 -0.226562 3.5625 -1.0625 L 3.4375 0 L 1.03125 0 L 1.03125 -14.234375 L 3.703125 -14.234375 L 3.703125 -9.125 C 4.328125 -9.851562 5.140625 -10.21875 6.140625 -10.21875 C 7.367188 -10.21875 8.328125 -9.765625 9.015625 -8.859375 C 9.710938 -7.960938 10.0625 -6.703125 10.0625 -5.078125 Z M 7.390625 -5.109375 C 7.390625 -6.128906 7.226562 -6.867188 6.90625 -7.328125 C 6.582031 -7.796875 6.101562 -8.03125 5.46875 -8.03125 C 4.613281 -8.03125 4.023438 -7.679688 3.703125 -6.984375 L 3.703125 -3.03125 C 4.035156 -2.320312 4.628906 -1.96875 5.484375 -1.96875 C 6.347656 -1.96875 6.914062 -2.394531 7.1875 -3.25 C 7.320312 -3.65625 7.390625 -4.273438 7.390625 -5.109375 Z M 7.390625 -5.109375 "/></g></g><g style="fill:#000000;fill-opacity:1;"><g transform="translate(126.094583, 150.730813)"><path style="stroke:none" d="M 3.859375 0 L 1.171875 0 L 1.171875 -14.234375 L 3.859375 -14.234375 Z M 3.859375 0 "/></g></g><g style="fill:#000000;fill-opacity:1;"><g transform="translate(131.127204, 150.730813)"><path style="stroke:none" d="M 3.859375 0 L 1.171875 0 L 1.171875 -10.03125 L 3.859375 -10.03125 Z M 1.015625 -12.625 C 1.015625 -13.03125 1.144531 -13.359375 1.40625 -13.609375 C 1.675781 -13.867188 2.046875 -14 2.515625 -14 C 2.972656 -14 3.335938 -13.867188 3.609375 -13.609375 C 3.878906 -13.359375 4.015625 -13.03125 4.015625 -12.625 C 4.015625 -12.21875 3.875 -11.882812 3.59375 -11.625 C 3.320312 -11.363281 2.957031 -11.234375 2.5 -11.234375 C 2.050781 -11.234375 1.691406 -11.363281 1.421875 -11.625 C 1.148438 -11.882812 1.015625 -12.21875 1.015625 -12.625 Z M 1.015625 -12.625 "/></g></g><g style="fill:#000000;fill-opacity:1;"><g transform="translate(136.159824, 150.730813)"><path style="stroke:none" d="M 6.46875 -2.765625 C 6.46875 -3.097656 6.300781 -3.359375 5.96875 -3.546875 C 5.644531 -3.734375 5.125 -3.898438 4.40625 -4.046875 C 2.019531 -4.546875 0.828125 -5.5625 0.828125 -7.09375 C 0.828125 -7.976562 1.195312 -8.71875 1.9375 -9.3125 C 2.675781 -9.914062 3.644531 -10.21875 4.84375 -10.21875 C 6.113281 -10.21875 7.128906 -9.914062 7.890625 -9.3125 C 8.648438 -8.71875 9.03125 -7.941406 9.03125 -6.984375 L 6.359375 -6.984375 C 6.359375 -7.367188 6.234375 -7.6875 5.984375 -7.9375 C 5.742188 -8.1875 5.359375 -8.3125 4.828125 -8.3125 C 4.378906 -8.3125 4.03125 -8.207031 3.78125 -8 C 3.53125 -7.789062 3.40625 -7.53125 3.40625 -7.21875 C 3.40625 -6.925781 3.546875 -6.6875 3.828125 -6.5 C 4.109375 -6.320312 4.582031 -6.164062 5.25 -6.03125 C 5.914062 -5.894531 6.476562 -5.742188 6.9375 -5.578125 C 8.351562 -5.054688 9.0625 -4.160156 9.0625 -2.890625 C 9.0625 -1.972656 8.671875 -1.226562 7.890625 -0.65625 C 7.109375 -0.09375 6.09375 0.1875 4.84375 0.1875 C 4.007812 0.1875 3.265625 0.0351562 2.609375 -0.265625 C 1.953125 -0.566406 1.4375 -0.976562 1.0625 -1.5 C 0.695312 -2.019531 0.515625 -2.582031 0.515625 -3.1875 L 3.0625 -3.1875 C 3.082031 -2.707031 3.253906 -2.34375 3.578125 -2.09375 C 3.910156 -1.84375 4.351562 -1.71875 4.90625 -1.71875 C 5.414062 -1.71875 5.800781 -1.8125 6.0625 -2 C 6.332031 -2.195312 6.46875 -2.453125 6.46875 -2.765625 Z M 6.46875 -2.765625 "/></g></g><g style="fill:#000000;fill-opacity:1;"><g transform="translate(145.919209, 150.730813)"><path style="stroke:none" d="M 3.640625 -8.9375 C 4.347656 -9.789062 5.242188 -10.21875 6.328125 -10.21875 C 8.492188 -10.21875 9.59375 -8.953125 9.625 -6.421875 L 9.625 0 L 6.953125 0 L 6.953125 -6.34375 C 6.953125 -6.925781 6.828125 -7.351562 6.578125 -7.625 C 6.328125 -7.894531 5.914062 -8.03125 5.34375 -8.03125 C 4.5625 -8.03125 3.992188 -7.726562 3.640625 -7.125 L 3.640625 0 L 0.96875 0 L 0.96875 -14.234375 L 3.640625 -14.234375 Z M 3.640625 -8.9375 "/></g></g><g clip-rule="nonzero" clip-path="url(#6f9c3ee3f3)"><g clip-rule="nonzero" clip-path="url(#c525869b4c)"><path style=" stroke:none;fill-rule:nonzero;fill:#71dbf4;fill-opacity:1;" d="M 57.964844 250.070312 L 173.929688 250.070312 L 173.929688 366.03125 L 57.964844 366.03125 Z M 57.964844 250.070312 "/></g></g><g style="fill:#000000;fill-opacity:1;"><g transform="translate(77.213805, 300.556887)"><path style="stroke:none" d="M 4.15625 0 L 1.375 0 L 1.375 -13.5 L 4.15625 -13.5 Z M 4.15625 0 "/></g></g><g style="fill:#000000;fill-opacity:1;"><g transform="translate(82.746906, 300.556887)"><path style="stroke:none" d="M 3.5 -10.03125 L 3.578125 -8.875 C 4.296875 -9.769531 5.257812 -10.21875 6.46875 -10.21875 C 7.53125 -10.21875 8.316406 -9.90625 8.828125 -9.28125 C 9.347656 -8.65625 9.613281 -7.722656 9.625 -6.484375 L 9.625 0 L 6.953125 0 L 6.953125 -6.421875 C 6.953125 -6.984375 6.828125 -7.390625 6.578125 -7.640625 C 6.328125 -7.898438 5.914062 -8.03125 5.34375 -8.03125 C 4.59375 -8.03125 4.03125 -7.710938 3.65625 -7.078125 L 3.65625 0 L 0.96875 0 L 0.96875 -10.03125 Z M 3.5 -10.03125 "/></g></g><g style="fill:#000000;fill-opacity:1;"><g transform="translate(93.377499, 300.556887)"><path style="stroke:none" d="M 4.234375 -12.5 L 4.234375 -10.03125 L 5.953125 -10.03125 L 5.953125 -8.0625 L 4.234375 -8.0625 L 4.234375 -3.0625 C 4.234375 -2.6875 4.300781 -2.414062 4.4375 -2.25 C 4.582031 -2.09375 4.859375 -2.015625 5.265625 -2.015625 C 5.554688 -2.015625 5.816406 -2.035156 6.046875 -2.078125 L 6.046875 -0.0625 C 5.523438 0.101562 4.988281 0.1875 4.4375 0.1875 C 2.550781 0.1875 1.59375 -0.757812 1.5625 -2.65625 L 1.5625 -8.0625 L 0.09375 -8.0625 L 0.09375 -10.03125 L 1.5625 -10.03125 L 1.5625 -12.5 Z M 4.234375 -12.5 "/></g></g><g style="fill:#000000;fill-opacity:1;"><g transform="translate(99.791071, 300.556887)"><path style="stroke:none" d="M 5.640625 0.1875 C 4.171875 0.1875 2.972656 -0.257812 2.046875 -1.15625 C 1.128906 -2.0625 0.671875 -3.269531 0.671875 -4.78125 L 0.671875 -5.03125 C 0.671875 -6.039062 0.863281 -6.941406 1.25 -7.734375 C 1.632812 -8.523438 2.1875 -9.132812 2.90625 -9.5625 C 3.625 -10 4.4375 -10.21875 5.34375 -10.21875 C 6.71875 -10.21875 7.796875 -9.785156 8.578125 -8.921875 C 9.367188 -8.054688 9.765625 -6.828125 9.765625 -5.234375 L 9.765625 -4.140625 L 3.390625 -4.140625 C 3.472656 -3.484375 3.726562 -2.957031 4.15625 -2.5625 C 4.59375 -2.164062 5.148438 -1.96875 5.828125 -1.96875 C 6.859375 -1.96875 7.660156 -2.34375 8.234375 -3.09375 L 9.5625 -1.625 C 9.15625 -1.050781 8.609375 -0.601562 7.921875 -0.28125 C 7.234375 0.03125 6.472656 0.1875 5.640625 0.1875 Z M 5.34375 -8.046875 C 4.8125 -8.046875 4.378906 -7.863281 4.046875 -7.5 C 3.710938 -7.144531 3.5 -6.632812 3.40625 -5.96875 L 7.140625 -5.96875 L 7.140625 -6.1875 C 7.128906 -6.78125 6.96875 -7.238281 6.65625 -7.5625 C 6.34375 -7.882812 5.90625 -8.046875 5.34375 -8.046875 Z M 5.34375 -8.046875 "/></g></g><g style="fill:#000000;fill-opacity:1;"><g transform="translate(110.050937, 300.556887)"><path style="stroke:none" d="M 0.640625 -5.09375 C 0.640625 -6.625 1.003906 -7.859375 1.734375 -8.796875 C 2.472656 -9.742188 3.460938 -10.21875 4.703125 -10.21875 C 5.796875 -10.21875 6.648438 -9.835938 7.265625 -9.078125 L 7.375 -10.03125 L 9.8125 -10.03125 L 9.8125 -0.328125 C 9.8125 0.546875 9.609375 1.304688 9.203125 1.953125 C 8.804688 2.597656 8.242188 3.09375 7.515625 3.4375 C 6.796875 3.78125 5.953125 3.953125 4.984375 3.953125 C 4.253906 3.953125 3.535156 3.800781 2.828125 3.5 C 2.128906 3.207031 1.601562 2.832031 1.25 2.375 L 2.4375 0.734375 C 3.101562 1.484375 3.910156 1.859375 4.859375 1.859375 C 5.578125 1.859375 6.132812 1.664062 6.53125 1.28125 C 6.925781 0.90625 7.125 0.367188 7.125 -0.328125 L 7.125 -0.859375 C 6.5 -0.160156 5.6875 0.1875 4.6875 0.1875 C 3.476562 0.1875 2.5 -0.28125 1.75 -1.21875 C 1.007812 -2.164062 0.640625 -3.421875 0.640625 -4.984375 Z M 3.3125 -4.890625 C 3.3125 -3.984375 3.492188 -3.269531 3.859375 -2.75 C 4.222656 -2.238281 4.722656 -1.984375 5.359375 -1.984375 C 6.179688 -1.984375 6.769531 -2.289062 7.125 -2.90625 L 7.125 -7.125 C 6.757812 -7.726562 6.179688 -8.03125 5.390625 -8.03125 C 4.742188 -8.03125 4.234375 -7.769531 3.859375 -7.25 C 3.492188 -6.726562 3.3125 -5.941406 3.3125 -4.890625 Z M 3.3125 -4.890625 "/></g></g><g style="fill:#000000;fill-opacity:1;"><g transform="translate(120.88543, 300.556887)"><path style="stroke:none" d="M 6.671875 -7.515625 C 6.304688 -7.566406 5.984375 -7.59375 5.703125 -7.59375 C 4.691406 -7.59375 4.023438 -7.25 3.703125 -6.5625 L 3.703125 0 L 1.03125 0 L 1.03125 -10.03125 L 3.5625 -10.03125 L 3.640625 -8.828125 C 4.171875 -9.753906 4.914062 -10.21875 5.875 -10.21875 C 6.164062 -10.21875 6.441406 -10.175781 6.703125 -10.09375 Z M 6.671875 -7.515625 "/></g></g><g style="fill:#000000;fill-opacity:1;"><g transform="translate(127.808756, 300.556887)"><path style="stroke:none" d="M 6.84375 0 C 6.71875 -0.238281 6.628906 -0.539062 6.578125 -0.90625 C 5.921875 -0.175781 5.078125 0.1875 4.046875 0.1875 C 3.054688 0.1875 2.238281 -0.09375 1.59375 -0.65625 C 0.945312 -1.226562 0.625 -1.945312 0.625 -2.8125 C 0.625 -3.875 1.019531 -4.691406 1.8125 -5.265625 C 2.601562 -5.835938 3.742188 -6.125 5.234375 -6.125 L 6.46875 -6.125 L 6.46875 -6.703125 C 6.46875 -7.160156 6.347656 -7.53125 6.109375 -7.8125 C 5.867188 -8.09375 5.492188 -8.234375 4.984375 -8.234375 C 4.523438 -8.234375 4.164062 -8.125 3.90625 -7.90625 C 3.65625 -7.6875 3.53125 -7.390625 3.53125 -7.015625 L 0.859375 -7.015625 C 0.859375 -7.597656 1.035156 -8.132812 1.390625 -8.625 C 1.742188 -9.125 2.25 -9.515625 2.90625 -9.796875 C 3.5625 -10.078125 4.296875 -10.21875 5.109375 -10.21875 C 6.347656 -10.21875 7.332031 -9.90625 8.0625 -9.28125 C 8.789062 -8.664062 9.15625 -7.796875 9.15625 -6.671875 L 9.15625 -2.3125 C 9.15625 -1.363281 9.285156 -0.644531 9.546875 -0.15625 L 9.546875 0 Z M 4.625 -1.859375 C 5.019531 -1.859375 5.382812 -1.945312 5.71875 -2.125 C 6.050781 -2.300781 6.300781 -2.539062 6.46875 -2.84375 L 6.46875 -4.5625 L 5.453125 -4.5625 C 4.117188 -4.5625 3.40625 -4.097656 3.3125 -3.171875 L 3.3125 -3.015625 C 3.3125 -2.679688 3.425781 -2.40625 3.65625 -2.1875 C 3.894531 -1.96875 4.21875 -1.859375 4.625 -1.859375 Z M 4.625 -1.859375 "/></g></g><g style="fill:#000000;fill-opacity:1;"><g transform="translate(137.985204, 300.556887)"><path style="stroke:none" d="M 4.234375 -12.5 L 4.234375 -10.03125 L 5.953125 -10.03125 L 5.953125 -8.0625 L 4.234375 -8.0625 L 4.234375 -3.0625 C 4.234375 -2.6875 4.300781 -2.414062 4.4375 -2.25 C 4.582031 -2.09375 4.859375 -2.015625 5.265625 -2.015625 C 5.554688 -2.015625 5.816406 -2.035156 6.046875 -2.078125 L 6.046875 -0.0625 C 5.523438 0.101562 4.988281 0.1875 4.4375 0.1875 C 2.550781 0.1875 1.59375 -0.757812 1.5625 -2.65625 L 1.5625 -8.0625 L 0.09375 -8.0625 L 0.09375 -10.03125 L 1.5625 -10.03125 L 1.5625 -12.5 Z M 4.234375 -12.5 "/></g></g><g style="fill:#000000;fill-opacity:1;"><g transform="translate(144.398775, 300.556887)"><path style="stroke:none" d="M 5.640625 0.1875 C 4.171875 0.1875 2.972656 -0.257812 2.046875 -1.15625 C 1.128906 -2.0625 0.671875 -3.269531 0.671875 -4.78125 L 0.671875 -5.03125 C 0.671875 -6.039062 0.863281 -6.941406 1.25 -7.734375 C 1.632812 -8.523438 2.1875 -9.132812 2.90625 -9.5625 C 3.625 -10 4.4375 -10.21875 5.34375 -10.21875 C 6.71875 -10.21875 7.796875 -9.785156 8.578125 -8.921875 C 9.367188 -8.054688 9.765625 -6.828125 9.765625 -5.234375 L 9.765625 -4.140625 L 3.390625 -4.140625 C 3.472656 -3.484375 3.726562 -2.957031 4.15625 -2.5625 C 4.59375 -2.164062 5.148438 -1.96875 5.828125 -1.96875 C 6.859375 -1.96875 7.660156 -2.34375 8.234375 -3.09375 L 9.5625 -1.625 C 9.15625 -1.050781 8.609375 -0.601562 7.921875 -0.28125 C 7.234375 0.03125 6.472656 0.1875 5.640625 0.1875 Z M 5.34375 -8.046875 C 4.8125 -8.046875 4.378906 -7.863281 4.046875 -7.5 C 3.710938 -7.144531 3.5 -6.632812 3.40625 -5.96875 L 7.140625 -5.96875 L 7.140625 -6.1875 C 7.128906 -6.78125 6.96875 -7.238281 6.65625 -7.5625 C 6.34375 -7.882812 5.90625 -8.046875 5.34375 -8.046875 Z M 5.34375 -8.046875 "/></g></g><g style="fill:#000000;fill-opacity:1;"><g transform="translate(74.040512, 326.786313)"><path style="stroke:none" d="M 6.84375 0 C 6.71875 -0.238281 6.628906 -0.539062 6.578125 -0.90625 C 5.921875 -0.175781 5.078125 0.1875 4.046875 0.1875 C 3.054688 0.1875 2.238281 -0.09375 1.59375 -0.65625 C 0.945312 -1.226562 0.625 -1.945312 0.625 -2.8125 C 0.625 -3.875 1.019531 -4.691406 1.8125 -5.265625 C 2.601562 -5.835938 3.742188 -6.125 5.234375 -6.125 L 6.46875 -6.125 L 6.46875 -6.703125 C 6.46875 -7.160156 6.347656 -7.53125 6.109375 -7.8125 C 5.867188 -8.09375 5.492188 -8.234375 4.984375 -8.234375 C 4.523438 -8.234375 4.164062 -8.125 3.90625 -7.90625 C 3.65625 -7.6875 3.53125 -7.390625 3.53125 -7.015625 L 0.859375 -7.015625 C 0.859375 -7.597656 1.035156 -8.132812 1.390625 -8.625 C 1.742188 -9.125 2.25 -9.515625 2.90625 -9.796875 C 3.5625 -10.078125 4.296875 -10.21875 5.109375 -10.21875 C 6.347656 -10.21875 7.332031 -9.90625 8.0625 -9.28125 C 8.789062 -8.664062 9.15625 -7.796875 9.15625 -6.671875 L 9.15625 -2.3125 C 9.15625 -1.363281 9.285156 -0.644531 9.546875 -0.15625 L 9.546875 0 Z M 4.625 -1.859375 C 5.019531 -1.859375 5.382812 -1.945312 5.71875 -2.125 C 6.050781 -2.300781 6.300781 -2.539062 6.46875 -2.84375 L 6.46875 -4.5625 L 5.453125 -4.5625 C 4.117188 -4.5625 3.40625 -4.097656 3.3125 -3.171875 L 3.3125 -3.015625 C 3.3125 -2.679688 3.425781 -2.40625 3.65625 -2.1875 C 3.894531 -1.96875 4.21875 -1.859375 4.625 -1.859375 Z M 4.625 -1.859375 "/></g></g><g style="fill:#000000;fill-opacity:1;"><g transform="translate(84.21696, 326.786313)"><path style="stroke:none" d="M 3.5 -10.03125 L 3.578125 -8.875 C 4.296875 -9.769531 5.257812 -10.21875 6.46875 -10.21875 C 7.53125 -10.21875 8.316406 -9.90625 8.828125 -9.28125 C 9.347656 -8.65625 9.613281 -7.722656 9.625 -6.484375 L 9.625 0 L 6.953125 0 L 6.953125 -6.421875 C 6.953125 -6.984375 6.828125 -7.390625 6.578125 -7.640625 C 6.328125 -7.898438 5.914062 -8.03125 5.34375 -8.03125 C 4.59375 -8.03125 4.03125 -7.710938 3.65625 -7.078125 L 3.65625 0 L 0.96875 0 L 0.96875 -10.03125 Z M 3.5 -10.03125 "/></g></g><g style="fill:#000000;fill-opacity:1;"><g transform="translate(94.847553, 326.786313)"><path style="stroke:none" d="M 0.609375 -5.09375 C 0.609375 -6.65625 0.957031 -7.898438 1.65625 -8.828125 C 2.363281 -9.753906 3.328125 -10.21875 4.546875 -10.21875 C 5.515625 -10.21875 6.320312 -9.851562 6.96875 -9.125 L 6.96875 -14.234375 L 9.65625 -14.234375 L 9.65625 0 L 7.234375 0 L 7.09375 -1.0625 C 6.425781 -0.226562 5.570312 0.1875 4.53125 0.1875 C 3.34375 0.1875 2.390625 -0.273438 1.671875 -1.203125 C 0.960938 -2.140625 0.609375 -3.4375 0.609375 -5.09375 Z M 3.296875 -4.890625 C 3.296875 -3.953125 3.457031 -3.234375 3.78125 -2.734375 C 4.101562 -2.234375 4.578125 -1.984375 5.203125 -1.984375 C 6.035156 -1.984375 6.625 -2.332031 6.96875 -3.03125 L 6.96875 -6.984375 C 6.632812 -7.679688 6.054688 -8.03125 5.234375 -8.03125 C 3.941406 -8.03125 3.296875 -6.984375 3.296875 -4.890625 Z M 3.296875 -4.890625 "/></g></g><g style="fill:#000000;fill-opacity:1;"><g transform="translate(105.543017, 326.786313)"><path style="stroke:none" d=""/></g></g><g style="fill:#000000;fill-opacity:1;"><g transform="translate(110.269782, 326.786313)"><path style="stroke:none" d="M 6.46875 -2.765625 C 6.46875 -3.097656 6.300781 -3.359375 5.96875 -3.546875 C 5.644531 -3.734375 5.125 -3.898438 4.40625 -4.046875 C 2.019531 -4.546875 0.828125 -5.5625 0.828125 -7.09375 C 0.828125 -7.976562 1.195312 -8.71875 1.9375 -9.3125 C 2.675781 -9.914062 3.644531 -10.21875 4.84375 -10.21875 C 6.113281 -10.21875 7.128906 -9.914062 7.890625 -9.3125 C 8.648438 -8.71875 9.03125 -7.941406 9.03125 -6.984375 L 6.359375 -6.984375 C 6.359375 -7.367188 6.234375 -7.6875 5.984375 -7.9375 C 5.742188 -8.1875 5.359375 -8.3125 4.828125 -8.3125 C 4.378906 -8.3125 4.03125 -8.207031 3.78125 -8 C 3.53125 -7.789062 3.40625 -7.53125 3.40625 -7.21875 C 3.40625 -6.925781 3.546875 -6.6875 3.828125 -6.5 C 4.109375 -6.320312 4.582031 -6.164062 5.25 -6.03125 C 5.914062 -5.894531 6.476562 -5.742188 6.9375 -5.578125 C 8.351562 -5.054688 9.0625 -4.160156 9.0625 -2.890625 C 9.0625 -1.972656 8.671875 -1.226562 7.890625 -0.65625 C 7.109375 -0.09375 6.09375 0.1875 4.84375 0.1875 C 4.007812 0.1875 3.265625 0.0351562 2.609375 -0.265625 C 1.953125 -0.566406 1.4375 -0.976562 1.0625 -1.5 C 0.695312 -2.019531 0.515625 -2.582031 0.515625 -3.1875 L 3.0625 -3.1875 C 3.082031 -2.707031 3.253906 -2.34375 3.578125 -2.09375 C 3.910156 -1.84375 4.351562 -1.71875 4.90625 -1.71875 C 5.414062 -1.71875 5.800781 -1.8125 6.0625 -2 C 6.332031 -2.195312 6.46875 -2.453125 6.46875 -2.765625 Z M 6.46875 -2.765625 "/></g></g><g style="fill:#000000;fill-opacity:1;"><g transform="translate(120.029168, 326.786313)"><path style="stroke:none" d="M 3.640625 -8.9375 C 4.347656 -9.789062 5.242188 -10.21875 6.328125 -10.21875 C 8.492188 -10.21875 9.59375 -8.953125 9.625 -6.421875 L 9.625 0 L 6.953125 0 L 6.953125 -6.34375 C 6.953125 -6.925781 6.828125 -7.351562 6.578125 -7.625 C 6.328125 -7.894531 5.914062 -8.03125 5.34375 -8.03125 C 4.5625 -8.03125 3.992188 -7.726562 3.640625 -7.125 L 3.640625 0 L 0.96875 0 L 0.96875 -14.234375 L 3.640625 -14.234375 Z M 3.640625 -8.9375 "/></g></g><g style="fill:#000000;fill-opacity:1;"><g transform="translate(130.650487, 326.786313)"><path style="stroke:none" d="M 6.84375 0 C 6.71875 -0.238281 6.628906 -0.539062 6.578125 -0.90625 C 5.921875 -0.175781 5.078125 0.1875 4.046875 0.1875 C 3.054688 0.1875 2.238281 -0.09375 1.59375 -0.65625 C 0.945312 -1.226562 0.625 -1.945312 0.625 -2.8125 C 0.625 -3.875 1.019531 -4.691406 1.8125 -5.265625 C 2.601562 -5.835938 3.742188 -6.125 5.234375 -6.125 L 6.46875 -6.125 L 6.46875 -6.703125 C 6.46875 -7.160156 6.347656 -7.53125 6.109375 -7.8125 C 5.867188 -8.09375 5.492188 -8.234375 4.984375 -8.234375 C 4.523438 -8.234375 4.164062 -8.125 3.90625 -7.90625 C 3.65625 -7.6875 3.53125 -7.390625 3.53125 -7.015625 L 0.859375 -7.015625 C 0.859375 -7.597656 1.035156 -8.132812 1.390625 -8.625 C 1.742188 -9.125 2.25 -9.515625 2.90625 -9.796875 C 3.5625 -10.078125 4.296875 -10.21875 5.109375 -10.21875 C 6.347656 -10.21875 7.332031 -9.90625 8.0625 -9.28125 C 8.789062 -8.664062 9.15625 -7.796875 9.15625 -6.671875 L 9.15625 -2.3125 C 9.15625 -1.363281 9.285156 -0.644531 9.546875 -0.15625 L 9.546875 0 Z M 4.625 -1.859375 C 5.019531 -1.859375 5.382812 -1.945312 5.71875 -2.125 C 6.050781 -2.300781 6.300781 -2.539062 6.46875 -2.84375 L 6.46875 -4.5625 L 5.453125 -4.5625 C 4.117188 -4.5625 3.40625 -4.097656 3.3125 -3.171875 L 3.3125 -3.015625 C 3.3125 -2.679688 3.425781 -2.40625 3.65625 -2.1875 C 3.894531 -1.96875 4.21875 -1.859375 4.625 -1.859375 Z M 4.625 -1.859375 "/></g></g><g style="fill:#000000;fill-opacity:1;"><g transform="translate(140.826934, 326.786313)"><path style="stroke:none" d="M 6.671875 -7.515625 C 6.304688 -7.566406 5.984375 -7.59375 5.703125 -7.59375 C 4.691406 -7.59375 4.023438 -7.25 3.703125 -6.5625 L 3.703125 0 L 1.03125 0 L 1.03125 -10.03125 L 3.5625 -10.03125 L 3.640625 -8.828125 C 4.171875 -9.753906 4.914062 -10.21875 5.875 -10.21875 C 6.164062 -10.21875 6.441406 -10.175781 6.703125 -10.09375 Z M 6.671875 -7.515625 "/></g></g><g style="fill:#000000;fill-opacity:1;"><g transform="translate(147.574148, 326.786313)"><path style="stroke:none" d="M 5.640625 0.1875 C 4.171875 0.1875 2.972656 -0.257812 2.046875 -1.15625 C 1.128906 -2.0625 0.671875 -3.269531 0.671875 -4.78125 L 0.671875 -5.03125 C 0.671875 -6.039062 0.863281 -6.941406 1.25 -7.734375 C 1.632812 -8.523438 2.1875 -9.132812 2.90625 -9.5625 C 3.625 -10 4.4375 -10.21875 5.34375 -10.21875 C 6.71875 -10.21875 7.796875 -9.785156 8.578125 -8.921875 C 9.367188 -8.054688 9.765625 -6.828125 9.765625 -5.234375 L 9.765625 -4.140625 L 3.390625 -4.140625 C 3.472656 -3.484375 3.726562 -2.957031 4.15625 -2.5625 C 4.59375 -2.164062 5.148438 -1.96875 5.828125 -1.96875 C 6.859375 -1.96875 7.660156 -2.34375 8.234375 -3.09375 L 9.5625 -1.625 C 9.15625 -1.050781 8.609375 -0.601562 7.921875 -0.28125 C 7.234375 0.03125 6.472656 0.1875 5.640625 0.1875 Z M 5.34375 -8.046875 C 4.8125 -8.046875 4.378906 -7.863281 4.046875 -7.5 C 3.710938 -7.144531 3.5 -6.632812 3.40625 -5.96875 L 7.140625 -5.96875 L 7.140625 -6.1875 C 7.128906 -6.78125 6.96875 -7.238281 6.65625 -7.5625 C 6.34375 -7.882812 5.90625 -8.046875 5.34375 -8.046875 Z M 5.34375 -8.046875 "/></g></g></g></svg>