<svg xmlns="http://www.w3.org/2000/svg" xmlns:xlink="http://www.w3.org/1999/xlink" width="850" zoomAndPan="magnify" viewBox="0 0 637.5 477.749986" height="637" preserveAspectRatio="xMidYMid meet" version="1.2"><defs><clipPath id="7f531d59ce"><path d="M 259.410156 4.03125 L 377.589844 4.03125 L 377.589844 122.210938 L 259.410156 122.210938 Z M 259.410156 4.03125 "/></clipPath><clipPath id="f5b769d1ff"><path d="M 318.5 4.03125 C 285.867188 4.03125 259.410156 30.488281 259.410156 63.121094 C 259.410156 95.753906 285.867188 122.210938 318.5 122.210938 C 351.132812 122.210938 377.589844 95.753906 377.589844 63.121094 C 377.589844 30.488281 351.132812 4.03125 318.5 4.03125 Z M 318.5 4.03125 "/></clipPath><clipPath id="4571ca0012"><path d="M 416.558594 89.9375 L 534.734375 89.9375 L 534.734375 208.113281 L 416.558594 208.113281 Z M 416.558594 89.9375 "/></clipPath><clipPath id="c110de0372"><path d="M 475.644531 89.9375 C 443.011719 89.9375 416.558594 116.394531 416.558594 149.027344 C 416.558594 181.660156 443.011719 208.113281 475.644531 208.113281 C 508.28125 208.113281 534.734375 181.660156 534.734375 149.027344 C 534.734375 116.394531 508.28125 89.9375 475.644531 89.9375 Z M 475.644531 89.9375 "/></clipPath><clipPath id="d56af7da94"><path d="M 426.300781 253.621094 L 544.476562 253.621094 L 544.476562 371.796875 L 426.300781 371.796875 Z M 426.300781 253.621094 "/></clipPath><clipPath id="ba04a01c6b"><path d="M 485.386719 253.621094 C 452.753906 253.621094 426.300781 280.074219 426.300781 312.707031 C 426.300781 345.34375 452.753906 371.796875 485.386719 371.796875 C 518.023438 371.796875 544.476562 345.34375 544.476562 312.707031 C 544.476562 280.074219 518.023438 253.621094 485.386719 253.621094 Z M 485.386719 253.621094 "/></clipPath><clipPath id="f90964915b"><path d="M 262.925781 359.261719 L 381.101562 359.261719 L 381.101562 477.4375 L 262.925781 477.4375 Z M 262.925781 359.261719 "/></clipPath><clipPath id="9b862fa05a"><path d="M 322.011719 359.261719 C 289.378906 359.261719 262.925781 385.714844 262.925781 418.347656 C 262.925781 450.984375 289.378906 477.4375 322.011719 477.4375 C 354.648438 477.4375 381.101562 450.984375 381.101562 418.347656 C 381.101562 385.714844 354.648438 359.261719 322.011719 359.261719 Z M 322.011719 359.261719 "/></clipPath><clipPath id="59a06581bd"><path d="M 102.335938 108.136719 L 220.511719 108.136719 L 220.511719 226.3125 L 102.335938 226.3125 Z M 102.335938 108.136719 "/></clipPath><clipPath id="b747088cae"><path d="M 161.425781 108.136719 C 128.792969 108.136719 102.335938 134.59375 102.335938 167.226562 C 102.335938 199.859375 128.792969 226.3125 161.425781 226.3125 C 194.058594 226.3125 220.511719 199.859375 220.511719 167.226562 C 220.511719 134.59375 194.058594 108.136719 161.425781 108.136719 Z M 161.425781 108.136719 "/></clipPath><clipPath id="6ef863705a"><path d="M 109.921875 268.789062 L 228.097656 268.789062 L 228.097656 386.964844 L 109.921875 386.964844 Z M 109.921875 268.789062 "/></clipPath><clipPath id="e4d883b373"><path d="M 169.007812 268.789062 C 136.375 268.789062 109.921875 295.246094 109.921875 327.878906 C 109.921875 360.511719 136.375 386.964844 169.007812 386.964844 C 201.644531 386.964844 228.097656 360.511719 228.097656 327.878906 C 228.097656 295.246094 201.644531 268.789062 169.007812 268.789062 Z M 169.007812 268.789062 "/></clipPath></defs><g id="a74277a930"><g clip-rule="nonzero" clip-path="url(#7f531d59ce)"><g clip-rule="nonzero" clip-path="url(#f5b769d1ff)"><path style=" stroke:none;fill-rule:nonzero;fill:#71dbf4;fill-opacity:1;" d="M 259.410156 4.03125 L 377.589844 4.03125 L 377.589844 122.210938 L 259.410156 122.210938 Z M 259.410156 4.03125 "/></g></g><g style="fill:#000000;fill-opacity:1;"><g transform="translate(284.07327, 69.490872)"><path style="stroke:none" d="M 9.75 -13.8125 L 12.640625 -13.8125 L 12.640625 -4.671875 C 12.640625 -3.628906 12.394531 -2.742188 11.90625 -2.015625 C 11.414062 -1.296875 10.738281 -0.742188 9.875 -0.359375 C 9.019531 0.015625 8.035156 0.203125 6.921875 0.203125 C 5.804688 0.203125 4.816406 0.015625 3.953125 -0.359375 C 3.085938 -0.742188 2.410156 -1.296875 1.921875 -2.015625 C 1.441406 -2.742188 1.203125 -3.628906 1.203125 -4.671875 L 1.203125 -13.8125 L 4.125 -13.8125 L 4.125 -4.78125 C 4.125 -4.039062 4.390625 -3.457031 4.921875 -3.03125 C 5.453125 -2.613281 6.117188 -2.40625 6.921875 -2.40625 C 7.742188 -2.40625 8.421875 -2.613281 8.953125 -3.03125 C 9.484375 -3.457031 9.75 -4.039062 9.75 -4.78125 Z M 9.75 -13.8125 "/></g></g><g style="fill:#000000;fill-opacity:1;"><g transform="translate(297.918196, 69.490872)"><path style="stroke:none" d="M 1.140625 3.890625 L 1.140625 -10.359375 L 3.984375 -10.359375 L 3.984375 -8.609375 L 4.109375 -8.609375 C 4.234375 -8.898438 4.414062 -9.1875 4.65625 -9.46875 C 4.894531 -9.757812 5.207031 -10 5.59375 -10.1875 C 5.988281 -10.382812 6.472656 -10.484375 7.046875 -10.484375 C 7.804688 -10.484375 8.503906 -10.285156 9.140625 -9.890625 C 9.773438 -9.503906 10.285156 -8.914062 10.671875 -8.125 C 11.054688 -7.332031 11.25 -6.34375 11.25 -5.15625 C 11.25 -4.007812 11.0625 -3.035156 10.6875 -2.234375 C 10.3125 -1.441406 9.804688 -0.84375 9.171875 -0.4375 C 8.535156 -0.03125 7.828125 0.171875 7.046875 0.171875 C 6.484375 0.171875 6.007812 0.078125 5.625 -0.109375 C 5.238281 -0.296875 4.921875 -0.53125 4.671875 -0.8125 C 4.429688 -1.09375 4.242188 -1.375 4.109375 -1.65625 L 4.015625 -1.65625 L 4.015625 3.890625 Z M 3.953125 -5.171875 C 3.953125 -4.253906 4.140625 -3.515625 4.515625 -2.953125 C 4.898438 -2.390625 5.441406 -2.109375 6.140625 -2.109375 C 6.835938 -2.109375 7.375 -2.394531 7.75 -2.96875 C 8.125 -3.539062 8.3125 -4.273438 8.3125 -5.171875 C 8.3125 -6.078125 8.125 -6.804688 7.75 -7.359375 C 7.382812 -7.921875 6.847656 -8.203125 6.140625 -8.203125 C 5.441406 -8.203125 4.898438 -7.925781 4.515625 -7.375 C 4.140625 -6.832031 3.953125 -6.097656 3.953125 -5.171875 Z M 3.953125 -5.171875 "/></g></g><g style="fill:#000000;fill-opacity:1;"><g transform="translate(309.922971, 69.490872)"><path style="stroke:none" d="M 4.015625 -13.8125 L 4.015625 0 L 1.140625 0 L 1.140625 -13.8125 Z M 4.015625 -13.8125 "/></g></g><g style="fill:#000000;fill-opacity:1;"><g transform="translate(315.086169, 69.490872)"><path style="stroke:none" d="M 5.828125 0.203125 C 4.773438 0.203125 3.867188 -0.0195312 3.109375 -0.46875 C 2.347656 -0.914062 1.757812 -1.539062 1.34375 -2.34375 C 0.9375 -3.144531 0.734375 -4.078125 0.734375 -5.140625 C 0.734375 -6.203125 0.9375 -7.132812 1.34375 -7.9375 C 1.757812 -8.738281 2.347656 -9.363281 3.109375 -9.8125 C 3.867188 -10.257812 4.773438 -10.484375 5.828125 -10.484375 C 6.867188 -10.484375 7.769531 -10.257812 8.53125 -9.8125 C 9.300781 -9.363281 9.890625 -8.738281 10.296875 -7.9375 C 10.710938 -7.132812 10.921875 -6.203125 10.921875 -5.140625 C 10.921875 -4.078125 10.710938 -3.144531 10.296875 -2.34375 C 9.890625 -1.539062 9.300781 -0.914062 8.53125 -0.46875 C 7.769531 -0.0195312 6.867188 0.203125 5.828125 0.203125 Z M 5.84375 -2.015625 C 6.550781 -2.015625 7.085938 -2.3125 7.453125 -2.90625 C 7.816406 -3.5 8 -4.25 8 -5.15625 C 8 -6.0625 7.816406 -6.8125 7.453125 -7.40625 C 7.085938 -8 6.550781 -8.296875 5.84375 -8.296875 C 5.113281 -8.296875 4.5625 -8 4.1875 -7.40625 C 3.820312 -6.8125 3.640625 -6.0625 3.640625 -5.15625 C 3.640625 -4.25 3.820312 -3.5 4.1875 -2.90625 C 4.5625 -2.3125 5.113281 -2.015625 5.84375 -2.015625 Z M 5.84375 -2.015625 "/></g></g><g style="fill:#000000;fill-opacity:1;"><g transform="translate(326.733699, 69.490872)"><path style="stroke:none" d="M 4.09375 0.203125 C 3.101562 0.203125 2.28125 -0.0546875 1.625 -0.578125 C 0.976562 -1.097656 0.65625 -1.867188 0.65625 -2.890625 C 0.65625 -3.660156 0.835938 -4.265625 1.203125 -4.703125 C 1.566406 -5.148438 2.046875 -5.472656 2.640625 -5.671875 C 3.234375 -5.878906 3.867188 -6.015625 4.546875 -6.078125 C 5.453125 -6.171875 6.097656 -6.265625 6.484375 -6.359375 C 6.867188 -6.460938 7.0625 -6.679688 7.0625 -7.015625 L 7.0625 -7.046875 C 7.0625 -7.472656 6.925781 -7.800781 6.65625 -8.03125 C 6.382812 -8.269531 6.003906 -8.390625 5.515625 -8.390625 C 5.003906 -8.390625 4.59375 -8.273438 4.28125 -8.046875 C 3.976562 -7.828125 3.78125 -7.546875 3.6875 -7.203125 L 1.03125 -7.421875 C 1.226562 -8.359375 1.71875 -9.101562 2.5 -9.65625 C 3.28125 -10.207031 4.289062 -10.484375 5.53125 -10.484375 C 6.300781 -10.484375 7.019531 -10.363281 7.6875 -10.125 C 8.363281 -9.882812 8.90625 -9.503906 9.3125 -8.984375 C 9.726562 -8.472656 9.9375 -7.804688 9.9375 -6.984375 L 9.9375 0 L 7.203125 0 L 7.203125 -1.4375 L 7.125 -1.4375 C 6.875 -0.957031 6.5 -0.5625 6 -0.25 C 5.5 0.0507812 4.863281 0.203125 4.09375 0.203125 Z M 4.921875 -1.78125 C 5.546875 -1.78125 6.0625 -1.960938 6.46875 -2.328125 C 6.875 -2.703125 7.078125 -3.160156 7.078125 -3.703125 L 7.078125 -4.796875 C 6.960938 -4.722656 6.785156 -4.65625 6.546875 -4.59375 C 6.316406 -4.539062 6.066406 -4.488281 5.796875 -4.4375 C 5.535156 -4.394531 5.296875 -4.359375 5.078125 -4.328125 C 4.578125 -4.265625 4.171875 -4.125 3.859375 -3.90625 C 3.554688 -3.695312 3.40625 -3.390625 3.40625 -2.984375 C 3.40625 -2.585938 3.546875 -2.285156 3.828125 -2.078125 C 4.117188 -1.878906 4.484375 -1.78125 4.921875 -1.78125 Z M 4.921875 -1.78125 "/></g></g><g style="fill:#000000;fill-opacity:1;"><g transform="translate(337.74762, 69.490872)"><path style="stroke:none" d="M 4.96875 0.171875 C 4.175781 0.171875 3.460938 -0.03125 2.828125 -0.4375 C 2.191406 -0.84375 1.6875 -1.441406 1.3125 -2.234375 C 0.945312 -3.035156 0.765625 -4.007812 0.765625 -5.15625 C 0.765625 -6.34375 0.957031 -7.332031 1.34375 -8.125 C 1.726562 -8.914062 2.238281 -9.503906 2.875 -9.890625 C 3.507812 -10.285156 4.203125 -10.484375 4.953125 -10.484375 C 5.535156 -10.484375 6.019531 -10.382812 6.40625 -10.1875 C 6.789062 -10 7.101562 -9.757812 7.34375 -9.46875 C 7.59375 -9.1875 7.78125 -8.898438 7.90625 -8.609375 L 7.984375 -8.609375 L 7.984375 -13.8125 L 10.859375 -13.8125 L 10.859375 0 L 8.015625 0 L 8.015625 -1.65625 L 7.90625 -1.65625 C 7.769531 -1.375 7.578125 -1.09375 7.328125 -0.8125 C 7.085938 -0.53125 6.769531 -0.296875 6.375 -0.109375 C 5.988281 0.078125 5.519531 0.171875 4.96875 0.171875 Z M 5.875 -2.109375 C 6.5625 -2.109375 7.09375 -2.390625 7.46875 -2.953125 C 7.851562 -3.515625 8.046875 -4.253906 8.046875 -5.171875 C 8.046875 -6.097656 7.859375 -6.832031 7.484375 -7.375 C 7.109375 -7.925781 6.570312 -8.203125 5.875 -8.203125 C 5.164062 -8.203125 4.625 -7.921875 4.25 -7.359375 C 3.875 -6.804688 3.6875 -6.078125 3.6875 -5.171875 C 3.6875 -4.273438 3.875 -3.539062 4.25 -2.96875 C 4.625 -2.394531 5.164062 -2.109375 5.875 -2.109375 Z M 5.875 -2.109375 "/></g></g><g style="fill:#000000;fill-opacity:1;"><g transform="translate(349.810771, 69.490872)"><path style="stroke:none" d=""/></g></g><g clip-rule="nonzero" clip-path="url(#4571ca0012)"><g clip-rule="nonzero" clip-path="url(#c110de0372)"><path style=" stroke:none;fill-rule:nonzero;fill:#71dbf4;fill-opacity:1;" d="M 416.558594 89.9375 L 534.734375 89.9375 L 534.734375 208.113281 L 416.558594 208.113281 Z M 416.558594 89.9375 "/></g></g><g style="fill:#000000;fill-opacity:1;"><g transform="translate(431.24924, 156.139799)"><path style="stroke:none" d="M 13.890625 -6.90625 C 13.890625 -5.394531 13.601562 -4.109375 13.03125 -3.046875 C 12.46875 -1.992188 11.695312 -1.191406 10.71875 -0.640625 C 9.738281 -0.0859375 8.640625 0.1875 7.421875 0.1875 C 6.191406 0.1875 5.085938 -0.0859375 4.109375 -0.640625 C 3.140625 -1.203125 2.367188 -2.007812 1.796875 -3.0625 C 1.234375 -4.125 0.953125 -5.40625 0.953125 -6.90625 C 0.953125 -8.40625 1.234375 -9.679688 1.796875 -10.734375 C 2.367188 -11.796875 3.140625 -12.601562 4.109375 -13.15625 C 5.085938 -13.71875 6.191406 -14 7.421875 -14 C 8.640625 -14 9.738281 -13.71875 10.71875 -13.15625 C 11.695312 -12.601562 12.46875 -11.796875 13.03125 -10.734375 C 13.601562 -9.679688 13.890625 -8.40625 13.890625 -6.90625 Z M 10.921875 -6.90625 C 10.921875 -8.363281 10.601562 -9.476562 9.96875 -10.25 C 9.332031 -11.019531 8.484375 -11.40625 7.421875 -11.40625 C 6.359375 -11.40625 5.507812 -11.019531 4.875 -10.25 C 4.238281 -9.476562 3.921875 -8.363281 3.921875 -6.90625 C 3.921875 -5.445312 4.238281 -4.328125 4.875 -3.546875 C 5.507812 -2.773438 6.359375 -2.390625 7.421875 -2.390625 C 8.484375 -2.390625 9.332031 -2.773438 9.96875 -3.546875 C 10.601562 -4.328125 10.921875 -5.445312 10.921875 -6.90625 Z M 10.921875 -6.90625 "/></g></g><g style="fill:#000000;fill-opacity:1;"><g transform="translate(446.091755, 156.139799)"><path style="stroke:none" d="M 1.140625 0 L 1.140625 -10.359375 L 3.9375 -10.359375 L 3.9375 -8.546875 L 4.03125 -8.546875 C 4.226562 -9.191406 4.546875 -9.675781 4.984375 -10 C 5.429688 -10.332031 5.945312 -10.5 6.53125 -10.5 C 6.800781 -10.5 7.054688 -10.460938 7.296875 -10.390625 C 7.535156 -10.328125 7.75 -10.238281 7.9375 -10.125 L 7.078125 -7.75 C 6.941406 -7.820312 6.789062 -7.878906 6.625 -7.921875 C 6.46875 -7.972656 6.289062 -8 6.09375 -8 C 5.519531 -8 5.03125 -7.800781 4.625 -7.40625 C 4.226562 -7.007812 4.023438 -6.492188 4.015625 -5.859375 L 4.015625 0 Z M 1.140625 0 "/></g></g><g style="fill:#000000;fill-opacity:1;"><g transform="translate(453.742149, 156.139799)"><path style="stroke:none" d="M 5.8125 4.03125 C 4.414062 4.03125 3.316406 3.753906 2.515625 3.203125 C 1.722656 2.660156 1.242188 2 1.078125 1.21875 L 3.734375 0.859375 C 3.847656 1.140625 4.070312 1.394531 4.40625 1.625 C 4.75 1.851562 5.238281 1.96875 5.875 1.96875 C 6.5 1.96875 7.015625 1.816406 7.421875 1.515625 C 7.828125 1.222656 8.03125 0.738281 8.03125 0.0625 L 8.03125 -1.828125 L 7.921875 -1.828125 C 7.722656 -1.398438 7.382812 -1.007812 6.90625 -0.65625 C 6.4375 -0.3125 5.789062 -0.140625 4.96875 -0.140625 C 4.1875 -0.140625 3.476562 -0.320312 2.84375 -0.6875 C 2.207031 -1.050781 1.703125 -1.609375 1.328125 -2.359375 C 0.953125 -3.109375 0.765625 -4.054688 0.765625 -5.203125 C 0.765625 -6.378906 0.957031 -7.359375 1.34375 -8.140625 C 1.726562 -8.921875 2.238281 -9.503906 2.875 -9.890625 C 3.507812 -10.285156 4.203125 -10.484375 4.953125 -10.484375 C 5.535156 -10.484375 6.019531 -10.382812 6.40625 -10.1875 C 6.800781 -10 7.117188 -9.757812 7.359375 -9.46875 C 7.597656 -9.1875 7.785156 -8.898438 7.921875 -8.609375 L 8.015625 -8.609375 L 8.015625 -10.359375 L 10.875 -10.359375 L 10.875 0.09375 C 10.875 0.957031 10.65625 1.679688 10.21875 2.265625 C 9.789062 2.847656 9.195312 3.285156 8.4375 3.578125 C 7.675781 3.878906 6.800781 4.03125 5.8125 4.03125 Z M 5.875 -2.3125 C 6.5625 -2.3125 7.09375 -2.566406 7.46875 -3.078125 C 7.851562 -3.585938 8.046875 -4.300781 8.046875 -5.21875 C 8.046875 -6.125 7.859375 -6.847656 7.484375 -7.390625 C 7.109375 -7.929688 6.570312 -8.203125 5.875 -8.203125 C 5.164062 -8.203125 4.625 -7.921875 4.25 -7.359375 C 3.875 -6.804688 3.6875 -6.09375 3.6875 -5.21875 C 3.6875 -4.320312 3.875 -3.613281 4.25 -3.09375 C 4.625 -2.570312 5.164062 -2.3125 5.875 -2.3125 Z M 5.875 -2.3125 "/></g></g><g style="fill:#000000;fill-opacity:1;"><g transform="translate(465.760405, 156.139799)"><path style="stroke:none" d="M 4.09375 0.203125 C 3.101562 0.203125 2.28125 -0.0546875 1.625 -0.578125 C 0.976562 -1.097656 0.65625 -1.867188 0.65625 -2.890625 C 0.65625 -3.660156 0.835938 -4.265625 1.203125 -4.703125 C 1.566406 -5.148438 2.046875 -5.472656 2.640625 -5.671875 C 3.234375 -5.878906 3.867188 -6.015625 4.546875 -6.078125 C 5.453125 -6.171875 6.097656 -6.265625 6.484375 -6.359375 C 6.867188 -6.460938 7.0625 -6.679688 7.0625 -7.015625 L 7.0625 -7.046875 C 7.0625 -7.472656 6.925781 -7.800781 6.65625 -8.03125 C 6.382812 -8.269531 6.003906 -8.390625 5.515625 -8.390625 C 5.003906 -8.390625 4.59375 -8.273438 4.28125 -8.046875 C 3.976562 -7.828125 3.78125 -7.546875 3.6875 -7.203125 L 1.03125 -7.421875 C 1.226562 -8.359375 1.71875 -9.101562 2.5 -9.65625 C 3.28125 -10.207031 4.289062 -10.484375 5.53125 -10.484375 C 6.300781 -10.484375 7.019531 -10.363281 7.6875 -10.125 C 8.363281 -9.882812 8.90625 -9.503906 9.3125 -8.984375 C 9.726562 -8.472656 9.9375 -7.804688 9.9375 -6.984375 L 9.9375 0 L 7.203125 0 L 7.203125 -1.4375 L 7.125 -1.4375 C 6.875 -0.957031 6.5 -0.5625 6 -0.25 C 5.5 0.0507812 4.863281 0.203125 4.09375 0.203125 Z M 4.921875 -1.78125 C 5.546875 -1.78125 6.0625 -1.960938 6.46875 -2.328125 C 6.875 -2.703125 7.078125 -3.160156 7.078125 -3.703125 L 7.078125 -4.796875 C 6.960938 -4.722656 6.785156 -4.65625 6.546875 -4.59375 C 6.316406 -4.539062 6.066406 -4.488281 5.796875 -4.4375 C 5.535156 -4.394531 5.296875 -4.359375 5.078125 -4.328125 C 4.578125 -4.265625 4.171875 -4.125 3.859375 -3.90625 C 3.554688 -3.695312 3.40625 -3.390625 3.40625 -2.984375 C 3.40625 -2.585938 3.546875 -2.285156 3.828125 -2.078125 C 4.117188 -1.878906 4.484375 -1.78125 4.921875 -1.78125 Z M 4.921875 -1.78125 "/></g></g><g style="fill:#000000;fill-opacity:1;"><g transform="translate(476.774327, 156.139799)"><path style="stroke:none" d="M 4.015625 -5.984375 L 4.015625 0 L 1.140625 0 L 1.140625 -10.359375 L 3.890625 -10.359375 L 3.890625 -8.53125 L 4 -8.53125 C 4.238281 -9.132812 4.625 -9.609375 5.15625 -9.953125 C 5.695312 -10.304688 6.351562 -10.484375 7.125 -10.484375 C 8.195312 -10.484375 9.054688 -10.132812 9.703125 -9.4375 C 10.359375 -8.75 10.6875 -7.800781 10.6875 -6.59375 L 10.6875 0 L 7.8125 0 L 7.8125 -6.078125 C 7.820312 -6.710938 7.660156 -7.207031 7.328125 -7.5625 C 7.003906 -7.925781 6.554688 -8.109375 5.984375 -8.109375 C 5.398438 -8.109375 4.925781 -7.921875 4.5625 -7.546875 C 4.207031 -7.171875 4.023438 -6.648438 4.015625 -5.984375 Z M 4.015625 -5.984375 "/></g></g><g style="fill:#000000;fill-opacity:1;"><g transform="translate(488.576883, 156.139799)"><path style="stroke:none" d="M 1.140625 0 L 1.140625 -10.359375 L 4.015625 -10.359375 L 4.015625 0 Z M 2.59375 -11.6875 C 2.164062 -11.6875 1.800781 -11.828125 1.5 -12.109375 C 1.195312 -12.398438 1.046875 -12.742188 1.046875 -13.140625 C 1.046875 -13.546875 1.195312 -13.890625 1.5 -14.171875 C 1.800781 -14.453125 2.164062 -14.59375 2.59375 -14.59375 C 3.019531 -14.59375 3.382812 -14.453125 3.6875 -14.171875 C 4 -13.890625 4.15625 -13.546875 4.15625 -13.140625 C 4.15625 -12.742188 4 -12.398438 3.6875 -12.109375 C 3.382812 -11.828125 3.019531 -11.6875 2.59375 -11.6875 Z M 2.59375 -11.6875 "/></g></g><g style="fill:#000000;fill-opacity:1;"><g transform="translate(493.740081, 156.139799)"><path style="stroke:none" d="M 1.09375 0 L 1.09375 -1.71875 L 6.15625 -7.984375 L 6.15625 -8.0625 L 1.265625 -8.0625 L 1.265625 -10.359375 L 9.625 -10.359375 L 9.625 -8.484375 L 4.859375 -2.359375 L 4.859375 -2.296875 L 9.796875 -2.296875 L 9.796875 0 Z M 1.09375 0 "/></g></g><g style="fill:#000000;fill-opacity:1;"><g transform="translate(504.295637, 156.139799)"><path style="stroke:none" d="M 5.859375 0.203125 C 4.804688 0.203125 3.894531 -0.0078125 3.125 -0.4375 C 2.351562 -0.875 1.757812 -1.488281 1.34375 -2.28125 C 0.9375 -3.082031 0.734375 -4.03125 0.734375 -5.125 C 0.734375 -6.195312 0.9375 -7.132812 1.34375 -7.9375 C 1.757812 -8.738281 2.34375 -9.363281 3.09375 -9.8125 C 3.851562 -10.257812 4.738281 -10.484375 5.75 -10.484375 C 6.664062 -10.484375 7.488281 -10.289062 8.21875 -9.90625 C 8.957031 -9.519531 9.539062 -8.9375 9.96875 -8.15625 C 10.40625 -7.375 10.625 -6.398438 10.625 -5.234375 L 10.625 -4.4375 L 3.5625 -4.4375 C 3.5625 -3.664062 3.769531 -3.054688 4.1875 -2.609375 C 4.613281 -2.160156 5.1875 -1.9375 5.90625 -1.9375 C 6.394531 -1.9375 6.8125 -2.035156 7.15625 -2.234375 C 7.507812 -2.441406 7.757812 -2.742188 7.90625 -3.140625 L 10.5625 -2.96875 C 10.351562 -2.007812 9.835938 -1.238281 9.015625 -0.65625 C 8.191406 -0.0820312 7.140625 0.203125 5.859375 0.203125 Z M 3.5625 -6.21875 L 7.921875 -6.21875 C 7.910156 -6.832031 7.707031 -7.335938 7.3125 -7.734375 C 6.925781 -8.140625 6.421875 -8.34375 5.796875 -8.34375 C 5.160156 -8.34375 4.632812 -8.132812 4.21875 -7.71875 C 3.8125 -7.3125 3.59375 -6.8125 3.5625 -6.21875 Z M 3.5625 -6.21875 "/></g></g><g style="fill:#000000;fill-opacity:1;"><g transform="translate(515.640079, 156.139799)"><path style="stroke:none" d=""/></g></g><g clip-rule="nonzero" clip-path="url(#d56af7da94)"><g clip-rule="nonzero" clip-path="url(#ba04a01c6b)"><path style=" stroke:none;fill-rule:nonzero;fill:#71dbf4;fill-opacity:1;" d="M 426.300781 253.621094 L 544.476562 253.621094 L 544.476562 371.796875 L 426.300781 371.796875 Z M 426.300781 253.621094 "/></g></g><g style="fill:#000000;fill-opacity:1;"><g transform="translate(440.175922, 305.963777)"><path style="stroke:none" d="M 8.6875 -9.828125 C 8.632812 -10.378906 8.398438 -10.804688 7.984375 -11.109375 C 7.578125 -11.410156 7.023438 -11.5625 6.328125 -11.5625 C 5.617188 -11.5625 5.070312 -11.410156 4.6875 -11.109375 C 4.300781 -10.816406 4.109375 -10.453125 4.109375 -10.015625 C 4.097656 -9.515625 4.3125 -9.132812 4.75 -8.875 C 5.1875 -8.625 5.703125 -8.429688 6.296875 -8.296875 L 7.53125 -8 C 8.332031 -7.820312 9.046875 -7.5625 9.671875 -7.21875 C 10.296875 -6.875 10.785156 -6.429688 11.140625 -5.890625 C 11.492188 -5.359375 11.671875 -4.707031 11.671875 -3.9375 C 11.671875 -2.675781 11.195312 -1.671875 10.25 -0.921875 C 9.3125 -0.171875 8 0.203125 6.3125 0.203125 C 4.632812 0.203125 3.296875 -0.175781 2.296875 -0.9375 C 1.304688 -1.707031 0.789062 -2.835938 0.75 -4.328125 L 3.578125 -4.328125 C 3.628906 -3.640625 3.898438 -3.117188 4.390625 -2.765625 C 4.890625 -2.421875 5.519531 -2.25 6.28125 -2.25 C 7.019531 -2.25 7.609375 -2.40625 8.046875 -2.71875 C 8.492188 -3.039062 8.722656 -3.453125 8.734375 -3.953125 C 8.722656 -4.421875 8.515625 -4.78125 8.109375 -5.03125 C 7.710938 -5.28125 7.140625 -5.492188 6.390625 -5.671875 L 4.875 -6.046875 C 3.71875 -6.328125 2.800781 -6.769531 2.125 -7.375 C 1.445312 -7.988281 1.113281 -8.800781 1.125 -9.8125 C 1.113281 -10.644531 1.332031 -11.375 1.78125 -12 C 2.238281 -12.632812 2.863281 -13.125 3.65625 -13.46875 C 4.445312 -13.820312 5.34375 -14 6.34375 -14 C 7.375 -14 8.269531 -13.820312 9.03125 -13.46875 C 9.800781 -13.113281 10.398438 -12.625 10.828125 -12 C 11.253906 -11.375 11.472656 -10.648438 11.484375 -9.828125 Z M 8.6875 -9.828125 "/></g></g><g style="fill:#000000;fill-opacity:1;"><g transform="translate(452.605351, 305.963777)"><path style="stroke:none" d="M 6.65625 -10.359375 L 6.65625 -8.203125 L 4.703125 -8.203125 L 4.703125 -3.1875 C 4.703125 -2.789062 4.789062 -2.519531 4.96875 -2.375 C 5.15625 -2.238281 5.390625 -2.171875 5.671875 -2.171875 C 5.804688 -2.171875 5.941406 -2.179688 6.078125 -2.203125 C 6.210938 -2.234375 6.316406 -2.253906 6.390625 -2.265625 L 6.84375 -0.125 C 6.695312 -0.0820312 6.492188 -0.03125 6.234375 0.03125 C 5.972656 0.09375 5.65625 0.128906 5.28125 0.140625 C 4.238281 0.179688 3.398438 -0.0390625 2.765625 -0.53125 C 2.140625 -1.03125 1.828125 -1.785156 1.828125 -2.796875 L 1.828125 -8.203125 L 0.421875 -8.203125 L 0.421875 -10.359375 L 1.828125 -10.359375 L 1.828125 -12.828125 L 4.703125 -12.828125 L 4.703125 -10.359375 Z M 6.65625 -10.359375 "/></g></g><g style="fill:#000000;fill-opacity:1;"><g transform="translate(459.871571, 305.963777)"><path style="stroke:none" d="M 5.828125 0.203125 C 4.773438 0.203125 3.867188 -0.0195312 3.109375 -0.46875 C 2.347656 -0.914062 1.757812 -1.539062 1.34375 -2.34375 C 0.9375 -3.144531 0.734375 -4.078125 0.734375 -5.140625 C 0.734375 -6.203125 0.9375 -7.132812 1.34375 -7.9375 C 1.757812 -8.738281 2.347656 -9.363281 3.109375 -9.8125 C 3.867188 -10.257812 4.773438 -10.484375 5.828125 -10.484375 C 6.867188 -10.484375 7.769531 -10.257812 8.53125 -9.8125 C 9.300781 -9.363281 9.890625 -8.738281 10.296875 -7.9375 C 10.710938 -7.132812 10.921875 -6.203125 10.921875 -5.140625 C 10.921875 -4.078125 10.710938 -3.144531 10.296875 -2.34375 C 9.890625 -1.539062 9.300781 -0.914062 8.53125 -0.46875 C 7.769531 -0.0195312 6.867188 0.203125 5.828125 0.203125 Z M 5.84375 -2.015625 C 6.550781 -2.015625 7.085938 -2.3125 7.453125 -2.90625 C 7.816406 -3.5 8 -4.25 8 -5.15625 C 8 -6.0625 7.816406 -6.8125 7.453125 -7.40625 C 7.085938 -8 6.550781 -8.296875 5.84375 -8.296875 C 5.113281 -8.296875 4.5625 -8 4.1875 -7.40625 C 3.820312 -6.8125 3.640625 -6.0625 3.640625 -5.15625 C 3.640625 -4.25 3.820312 -3.5 4.1875 -2.90625 C 4.5625 -2.3125 5.113281 -2.015625 5.84375 -2.015625 Z M 5.84375 -2.015625 "/></g></g><g style="fill:#000000;fill-opacity:1;"><g transform="translate(471.519101, 305.963777)"><path style="stroke:none" d="M 1.140625 0 L 1.140625 -10.359375 L 3.9375 -10.359375 L 3.9375 -8.546875 L 4.03125 -8.546875 C 4.226562 -9.191406 4.546875 -9.675781 4.984375 -10 C 5.429688 -10.332031 5.945312 -10.5 6.53125 -10.5 C 6.800781 -10.5 7.054688 -10.460938 7.296875 -10.390625 C 7.535156 -10.328125 7.75 -10.238281 7.9375 -10.125 L 7.078125 -7.75 C 6.941406 -7.820312 6.789062 -7.878906 6.625 -7.921875 C 6.46875 -7.972656 6.289062 -8 6.09375 -8 C 5.519531 -8 5.03125 -7.800781 4.625 -7.40625 C 4.226562 -7.007812 4.023438 -6.492188 4.015625 -5.859375 L 4.015625 0 Z M 1.140625 0 "/></g></g><g style="fill:#000000;fill-opacity:1;"><g transform="translate(479.169495, 305.963777)"><path style="stroke:none" d="M 5.859375 0.203125 C 4.804688 0.203125 3.894531 -0.0078125 3.125 -0.4375 C 2.351562 -0.875 1.757812 -1.488281 1.34375 -2.28125 C 0.9375 -3.082031 0.734375 -4.03125 0.734375 -5.125 C 0.734375 -6.195312 0.9375 -7.132812 1.34375 -7.9375 C 1.757812 -8.738281 2.34375 -9.363281 3.09375 -9.8125 C 3.851562 -10.257812 4.738281 -10.484375 5.75 -10.484375 C 6.664062 -10.484375 7.488281 -10.289062 8.21875 -9.90625 C 8.957031 -9.519531 9.539062 -8.9375 9.96875 -8.15625 C 10.40625 -7.375 10.625 -6.398438 10.625 -5.234375 L 10.625 -4.4375 L 3.5625 -4.4375 C 3.5625 -3.664062 3.769531 -3.054688 4.1875 -2.609375 C 4.613281 -2.160156 5.1875 -1.9375 5.90625 -1.9375 C 6.394531 -1.9375 6.8125 -2.035156 7.15625 -2.234375 C 7.507812 -2.441406 7.757812 -2.742188 7.90625 -3.140625 L 10.5625 -2.96875 C 10.351562 -2.007812 9.835938 -1.238281 9.015625 -0.65625 C 8.191406 -0.0820312 7.140625 0.203125 5.859375 0.203125 Z M 3.5625 -6.21875 L 7.921875 -6.21875 C 7.910156 -6.832031 7.707031 -7.335938 7.3125 -7.734375 C 6.925781 -8.140625 6.421875 -8.34375 5.796875 -8.34375 C 5.160156 -8.34375 4.632812 -8.132812 4.21875 -7.71875 C 3.8125 -7.3125 3.59375 -6.8125 3.5625 -6.21875 Z M 3.5625 -6.21875 "/></g></g><g style="fill:#000000;fill-opacity:1;"><g transform="translate(490.513709, 305.963777)"><path style="stroke:none" d=""/></g></g><g style="fill:#000000;fill-opacity:1;"><g transform="translate(494.915236, 305.963777)"><path style="stroke:none" d="M 4.09375 0.203125 C 3.101562 0.203125 2.28125 -0.0546875 1.625 -0.578125 C 0.976562 -1.097656 0.65625 -1.867188 0.65625 -2.890625 C 0.65625 -3.660156 0.835938 -4.265625 1.203125 -4.703125 C 1.566406 -5.148438 2.046875 -5.472656 2.640625 -5.671875 C 3.234375 -5.878906 3.867188 -6.015625 4.546875 -6.078125 C 5.453125 -6.171875 6.097656 -6.265625 6.484375 -6.359375 C 6.867188 -6.460938 7.0625 -6.679688 7.0625 -7.015625 L 7.0625 -7.046875 C 7.0625 -7.472656 6.925781 -7.800781 6.65625 -8.03125 C 6.382812 -8.269531 6.003906 -8.390625 5.515625 -8.390625 C 5.003906 -8.390625 4.59375 -8.273438 4.28125 -8.046875 C 3.976562 -7.828125 3.78125 -7.546875 3.6875 -7.203125 L 1.03125 -7.421875 C 1.226562 -8.359375 1.71875 -9.101562 2.5 -9.65625 C 3.28125 -10.207031 4.289062 -10.484375 5.53125 -10.484375 C 6.300781 -10.484375 7.019531 -10.363281 7.6875 -10.125 C 8.363281 -9.882812 8.90625 -9.503906 9.3125 -8.984375 C 9.726562 -8.472656 9.9375 -7.804688 9.9375 -6.984375 L 9.9375 0 L 7.203125 0 L 7.203125 -1.4375 L 7.125 -1.4375 C 6.875 -0.957031 6.5 -0.5625 6 -0.25 C 5.5 0.0507812 4.863281 0.203125 4.09375 0.203125 Z M 4.921875 -1.78125 C 5.546875 -1.78125 6.0625 -1.960938 6.46875 -2.328125 C 6.875 -2.703125 7.078125 -3.160156 7.078125 -3.703125 L 7.078125 -4.796875 C 6.960938 -4.722656 6.785156 -4.65625 6.546875 -4.59375 C 6.316406 -4.539062 6.066406 -4.488281 5.796875 -4.4375 C 5.535156 -4.394531 5.296875 -4.359375 5.078125 -4.328125 C 4.578125 -4.265625 4.171875 -4.125 3.859375 -3.90625 C 3.554688 -3.695312 3.40625 -3.390625 3.40625 -2.984375 C 3.40625 -2.585938 3.546875 -2.285156 3.828125 -2.078125 C 4.117188 -1.878906 4.484375 -1.78125 4.921875 -1.78125 Z M 4.921875 -1.78125 "/></g></g><g style="fill:#000000;fill-opacity:1;"><g transform="translate(505.929157, 305.963777)"><path style="stroke:none" d="M 4.015625 -5.984375 L 4.015625 0 L 1.140625 0 L 1.140625 -10.359375 L 3.890625 -10.359375 L 3.890625 -8.53125 L 4 -8.53125 C 4.238281 -9.132812 4.625 -9.609375 5.15625 -9.953125 C 5.695312 -10.304688 6.351562 -10.484375 7.125 -10.484375 C 8.195312 -10.484375 9.054688 -10.132812 9.703125 -9.4375 C 10.359375 -8.75 10.6875 -7.800781 10.6875 -6.59375 L 10.6875 0 L 7.8125 0 L 7.8125 -6.078125 C 7.820312 -6.710938 7.660156 -7.207031 7.328125 -7.5625 C 7.003906 -7.925781 6.554688 -8.109375 5.984375 -8.109375 C 5.398438 -8.109375 4.925781 -7.921875 4.5625 -7.546875 C 4.207031 -7.171875 4.023438 -6.648438 4.015625 -5.984375 Z M 4.015625 -5.984375 "/></g></g><g style="fill:#000000;fill-opacity:1;"><g transform="translate(517.731713, 305.963777)"><path style="stroke:none" d="M 4.96875 0.171875 C 4.175781 0.171875 3.460938 -0.03125 2.828125 -0.4375 C 2.191406 -0.84375 1.6875 -1.441406 1.3125 -2.234375 C 0.945312 -3.035156 0.765625 -4.007812 0.765625 -5.15625 C 0.765625 -6.34375 0.957031 -7.332031 1.34375 -8.125 C 1.726562 -8.914062 2.238281 -9.503906 2.875 -9.890625 C 3.507812 -10.285156 4.203125 -10.484375 4.953125 -10.484375 C 5.535156 -10.484375 6.019531 -10.382812 6.40625 -10.1875 C 6.789062 -10 7.101562 -9.757812 7.34375 -9.46875 C 7.59375 -9.1875 7.78125 -8.898438 7.90625 -8.609375 L 7.984375 -8.609375 L 7.984375 -13.8125 L 10.859375 -13.8125 L 10.859375 0 L 8.015625 0 L 8.015625 -1.65625 L 7.90625 -1.65625 C 7.769531 -1.375 7.578125 -1.09375 7.328125 -0.8125 C 7.085938 -0.53125 6.769531 -0.296875 6.375 -0.109375 C 5.988281 0.078125 5.519531 0.171875 4.96875 0.171875 Z M 5.875 -2.109375 C 6.5625 -2.109375 7.09375 -2.390625 7.46875 -2.953125 C 7.851562 -3.515625 8.046875 -4.253906 8.046875 -5.171875 C 8.046875 -6.097656 7.859375 -6.832031 7.484375 -7.375 C 7.109375 -7.925781 6.570312 -8.203125 5.875 -8.203125 C 5.164062 -8.203125 4.625 -7.921875 4.25 -7.359375 C 3.875 -6.804688 3.6875 -6.078125 3.6875 -5.171875 C 3.6875 -4.273438 3.875 -3.539062 4.25 -2.96875 C 4.625 -2.394531 5.164062 -2.109375 5.875 -2.109375 Z M 5.875 -2.109375 "/></g></g><g style="fill:#000000;fill-opacity:1;"><g transform="translate(529.800936, 305.963777)"><path style="stroke:none" d=""/></g></g><g style="fill:#000000;fill-opacity:1;"><g transform="translate(448.899548, 332.193204)"><path style="stroke:none" d="M 1.140625 0 L 1.140625 -10.359375 L 3.9375 -10.359375 L 3.9375 -8.546875 L 4.03125 -8.546875 C 4.226562 -9.191406 4.546875 -9.675781 4.984375 -10 C 5.429688 -10.332031 5.945312 -10.5 6.53125 -10.5 C 6.800781 -10.5 7.054688 -10.460938 7.296875 -10.390625 C 7.535156 -10.328125 7.75 -10.238281 7.9375 -10.125 L 7.078125 -7.75 C 6.941406 -7.820312 6.789062 -7.878906 6.625 -7.921875 C 6.46875 -7.972656 6.289062 -8 6.09375 -8 C 5.519531 -8 5.03125 -7.800781 4.625 -7.40625 C 4.226562 -7.007812 4.023438 -6.492188 4.015625 -5.859375 L 4.015625 0 Z M 1.140625 0 "/></g></g><g style="fill:#000000;fill-opacity:1;"><g transform="translate(456.549942, 332.193204)"><path style="stroke:none" d="M 5.859375 0.203125 C 4.804688 0.203125 3.894531 -0.0078125 3.125 -0.4375 C 2.351562 -0.875 1.757812 -1.488281 1.34375 -2.28125 C 0.9375 -3.082031 0.734375 -4.03125 0.734375 -5.125 C 0.734375 -6.195312 0.9375 -7.132812 1.34375 -7.9375 C 1.757812 -8.738281 2.34375 -9.363281 3.09375 -9.8125 C 3.851562 -10.257812 4.738281 -10.484375 5.75 -10.484375 C 6.664062 -10.484375 7.488281 -10.289062 8.21875 -9.90625 C 8.957031 -9.519531 9.539062 -8.9375 9.96875 -8.15625 C 10.40625 -7.375 10.625 -6.398438 10.625 -5.234375 L 10.625 -4.4375 L 3.5625 -4.4375 C 3.5625 -3.664062 3.769531 -3.054688 4.1875 -2.609375 C 4.613281 -2.160156 5.1875 -1.9375 5.90625 -1.9375 C 6.394531 -1.9375 6.8125 -2.035156 7.15625 -2.234375 C 7.507812 -2.441406 7.757812 -2.742188 7.90625 -3.140625 L 10.5625 -2.96875 C 10.351562 -2.007812 9.835938 -1.238281 9.015625 -0.65625 C 8.191406 -0.0820312 7.140625 0.203125 5.859375 0.203125 Z M 3.5625 -6.21875 L 7.921875 -6.21875 C 7.910156 -6.832031 7.707031 -7.335938 7.3125 -7.734375 C 6.925781 -8.140625 6.421875 -8.34375 5.796875 -8.34375 C 5.160156 -8.34375 4.632812 -8.132812 4.21875 -7.71875 C 3.8125 -7.3125 3.59375 -6.8125 3.5625 -6.21875 Z M 3.5625 -6.21875 "/></g></g><g style="fill:#000000;fill-opacity:1;"><g transform="translate(467.894156, 332.193204)"><path style="stroke:none" d="M 6.65625 -10.359375 L 6.65625 -8.203125 L 4.703125 -8.203125 L 4.703125 -3.1875 C 4.703125 -2.789062 4.789062 -2.519531 4.96875 -2.375 C 5.15625 -2.238281 5.390625 -2.171875 5.671875 -2.171875 C 5.804688 -2.171875 5.941406 -2.179688 6.078125 -2.203125 C 6.210938 -2.234375 6.316406 -2.253906 6.390625 -2.265625 L 6.84375 -0.125 C 6.695312 -0.0820312 6.492188 -0.03125 6.234375 0.03125 C 5.972656 0.09375 5.65625 0.128906 5.28125 0.140625 C 4.238281 0.179688 3.398438 -0.0390625 2.765625 -0.53125 C 2.140625 -1.03125 1.828125 -1.785156 1.828125 -2.796875 L 1.828125 -8.203125 L 0.421875 -8.203125 L 0.421875 -10.359375 L 1.828125 -10.359375 L 1.828125 -12.828125 L 4.703125 -12.828125 L 4.703125 -10.359375 Z M 6.65625 -10.359375 "/></g></g><g style="fill:#000000;fill-opacity:1;"><g transform="translate(475.268232, 332.193204)"><path style="stroke:none" d="M 1.140625 0 L 1.140625 -10.359375 L 3.9375 -10.359375 L 3.9375 -8.546875 L 4.03125 -8.546875 C 4.226562 -9.191406 4.546875 -9.675781 4.984375 -10 C 5.429688 -10.332031 5.945312 -10.5 6.53125 -10.5 C 6.800781 -10.5 7.054688 -10.460938 7.296875 -10.390625 C 7.535156 -10.328125 7.75 -10.238281 7.9375 -10.125 L 7.078125 -7.75 C 6.941406 -7.820312 6.789062 -7.878906 6.625 -7.921875 C 6.46875 -7.972656 6.289062 -8 6.09375 -8 C 5.519531 -8 5.03125 -7.800781 4.625 -7.40625 C 4.226562 -7.007812 4.023438 -6.492188 4.015625 -5.859375 L 4.015625 0 Z M 1.140625 0 "/></g></g><g style="fill:#000000;fill-opacity:1;"><g transform="translate(483.403978, 332.193204)"><path style="stroke:none" d="M 1.140625 0 L 1.140625 -10.359375 L 4.015625 -10.359375 L 4.015625 0 Z M 2.59375 -11.6875 C 2.164062 -11.6875 1.800781 -11.828125 1.5 -12.109375 C 1.195312 -12.398438 1.046875 -12.742188 1.046875 -13.140625 C 1.046875 -13.546875 1.195312 -13.890625 1.5 -14.171875 C 1.800781 -14.453125 2.164062 -14.59375 2.59375 -14.59375 C 3.019531 -14.59375 3.382812 -14.453125 3.6875 -14.171875 C 4 -13.890625 4.15625 -13.546875 4.15625 -13.140625 C 4.15625 -12.742188 4 -12.398438 3.6875 -12.109375 C 3.382812 -11.828125 3.019531 -11.6875 2.59375 -11.6875 Z M 2.59375 -11.6875 "/></g></g><g style="fill:#000000;fill-opacity:1;"><g transform="translate(488.567176, 332.193204)"><path style="stroke:none" d="M 5.859375 0.203125 C 4.804688 0.203125 3.894531 -0.0078125 3.125 -0.4375 C 2.351562 -0.875 1.757812 -1.488281 1.34375 -2.28125 C 0.9375 -3.082031 0.734375 -4.03125 0.734375 -5.125 C 0.734375 -6.195312 0.9375 -7.132812 1.34375 -7.9375 C 1.757812 -8.738281 2.34375 -9.363281 3.09375 -9.8125 C 3.851562 -10.257812 4.738281 -10.484375 5.75 -10.484375 C 6.664062 -10.484375 7.488281 -10.289062 8.21875 -9.90625 C 8.957031 -9.519531 9.539062 -8.9375 9.96875 -8.15625 C 10.40625 -7.375 10.625 -6.398438 10.625 -5.234375 L 10.625 -4.4375 L 3.5625 -4.4375 C 3.5625 -3.664062 3.769531 -3.054688 4.1875 -2.609375 C 4.613281 -2.160156 5.1875 -1.9375 5.90625 -1.9375 C 6.394531 -1.9375 6.8125 -2.035156 7.15625 -2.234375 C 7.507812 -2.441406 7.757812 -2.742188 7.90625 -3.140625 L 10.5625 -2.96875 C 10.351562 -2.007812 9.835938 -1.238281 9.015625 -0.65625 C 8.191406 -0.0820312 7.140625 0.203125 5.859375 0.203125 Z M 3.5625 -6.21875 L 7.921875 -6.21875 C 7.910156 -6.832031 7.707031 -7.335938 7.3125 -7.734375 C 6.925781 -8.140625 6.421875 -8.34375 5.796875 -8.34375 C 5.160156 -8.34375 4.632812 -8.132812 4.21875 -7.71875 C 3.8125 -7.3125 3.59375 -6.8125 3.5625 -6.21875 Z M 3.5625 -6.21875 "/></g></g><g style="fill:#000000;fill-opacity:1;"><g transform="translate(499.749606, 332.193204)"><path style="stroke:none" d="M 10.796875 -10.359375 L 7.1875 0 L 3.9375 0 L 0.328125 -10.359375 L 3.359375 -10.359375 L 5.515625 -2.953125 L 5.609375 -2.953125 L 7.765625 -10.359375 Z M 10.796875 -10.359375 "/></g></g><g style="fill:#000000;fill-opacity:1;"><g transform="translate(510.527597, 332.193204)"><path style="stroke:none" d="M 5.859375 0.203125 C 4.804688 0.203125 3.894531 -0.0078125 3.125 -0.4375 C 2.351562 -0.875 1.757812 -1.488281 1.34375 -2.28125 C 0.9375 -3.082031 0.734375 -4.03125 0.734375 -5.125 C 0.734375 -6.195312 0.9375 -7.132812 1.34375 -7.9375 C 1.757812 -8.738281 2.34375 -9.363281 3.09375 -9.8125 C 3.851562 -10.257812 4.738281 -10.484375 5.75 -10.484375 C 6.664062 -10.484375 7.488281 -10.289062 8.21875 -9.90625 C 8.957031 -9.519531 9.539062 -8.9375 9.96875 -8.15625 C 10.40625 -7.375 10.625 -6.398438 10.625 -5.234375 L 10.625 -4.4375 L 3.5625 -4.4375 C 3.5625 -3.664062 3.769531 -3.054688 4.1875 -2.609375 C 4.613281 -2.160156 5.1875 -1.9375 5.90625 -1.9375 C 6.394531 -1.9375 6.8125 -2.035156 7.15625 -2.234375 C 7.507812 -2.441406 7.757812 -2.742188 7.90625 -3.140625 L 10.5625 -2.96875 C 10.351562 -2.007812 9.835938 -1.238281 9.015625 -0.65625 C 8.191406 -0.0820312 7.140625 0.203125 5.859375 0.203125 Z M 3.5625 -6.21875 L 7.921875 -6.21875 C 7.910156 -6.832031 7.707031 -7.335938 7.3125 -7.734375 C 6.925781 -8.140625 6.421875 -8.34375 5.796875 -8.34375 C 5.160156 -8.34375 4.632812 -8.132812 4.21875 -7.71875 C 3.8125 -7.3125 3.59375 -6.8125 3.5625 -6.21875 Z M 3.5625 -6.21875 "/></g></g><g clip-rule="nonzero" clip-path="url(#f90964915b)"><g clip-rule="nonzero" clip-path="url(#9b862fa05a)"><path style=" stroke:none;fill-rule:nonzero;fill:#71dbf4;fill-opacity:1;" d="M 262.925781 359.261719 L 381.101562 359.261719 L 381.101562 477.4375 L 262.925781 477.4375 Z M 262.925781 359.261719 "/></g></g><g style="fill:#000000;fill-opacity:1;"><g transform="translate(284.632402, 424.719607)"><path style="stroke:none" d="M 1.203125 -13.8125 L 4.796875 -13.8125 L 8.609375 -4.53125 L 8.765625 -4.53125 L 12.5625 -13.8125 L 16.171875 -13.8125 L 16.171875 0 L 13.328125 0 L 13.328125 -8.984375 L 13.21875 -8.984375 L 9.640625 -0.0625 L 7.71875 -0.0625 L 4.140625 -9.015625 L 4.03125 -9.015625 L 4.03125 0 L 1.203125 0 Z M 1.203125 -13.8125 "/></g></g><g style="fill:#000000;fill-opacity:1;"><g transform="translate(302.171101, 424.719607)"><path style="stroke:none" d="M 4.09375 0.203125 C 3.101562 0.203125 2.28125 -0.0546875 1.625 -0.578125 C 0.976562 -1.097656 0.65625 -1.867188 0.65625 -2.890625 C 0.65625 -3.660156 0.835938 -4.265625 1.203125 -4.703125 C 1.566406 -5.148438 2.046875 -5.472656 2.640625 -5.671875 C 3.234375 -5.878906 3.867188 -6.015625 4.546875 -6.078125 C 5.453125 -6.171875 6.097656 -6.265625 6.484375 -6.359375 C 6.867188 -6.460938 7.0625 -6.679688 7.0625 -7.015625 L 7.0625 -7.046875 C 7.0625 -7.472656 6.925781 -7.800781 6.65625 -8.03125 C 6.382812 -8.269531 6.003906 -8.390625 5.515625 -8.390625 C 5.003906 -8.390625 4.59375 -8.273438 4.28125 -8.046875 C 3.976562 -7.828125 3.78125 -7.546875 3.6875 -7.203125 L 1.03125 -7.421875 C 1.226562 -8.359375 1.71875 -9.101562 2.5 -9.65625 C 3.28125 -10.207031 4.289062 -10.484375 5.53125 -10.484375 C 6.300781 -10.484375 7.019531 -10.363281 7.6875 -10.125 C 8.363281 -9.882812 8.90625 -9.503906 9.3125 -8.984375 C 9.726562 -8.472656 9.9375 -7.804688 9.9375 -6.984375 L 9.9375 0 L 7.203125 0 L 7.203125 -1.4375 L 7.125 -1.4375 C 6.875 -0.957031 6.5 -0.5625 6 -0.25 C 5.5 0.0507812 4.863281 0.203125 4.09375 0.203125 Z M 4.921875 -1.78125 C 5.546875 -1.78125 6.0625 -1.960938 6.46875 -2.328125 C 6.875 -2.703125 7.078125 -3.160156 7.078125 -3.703125 L 7.078125 -4.796875 C 6.960938 -4.722656 6.785156 -4.65625 6.546875 -4.59375 C 6.316406 -4.539062 6.066406 -4.488281 5.796875 -4.4375 C 5.535156 -4.394531 5.296875 -4.359375 5.078125 -4.328125 C 4.578125 -4.265625 4.171875 -4.125 3.859375 -3.90625 C 3.554688 -3.695312 3.40625 -3.390625 3.40625 -2.984375 C 3.40625 -2.585938 3.546875 -2.285156 3.828125 -2.078125 C 4.117188 -1.878906 4.484375 -1.78125 4.921875 -1.78125 Z M 4.921875 -1.78125 "/></g></g><g style="fill:#000000;fill-opacity:1;"><g transform="translate(313.185023, 424.719607)"><path style="stroke:none" d="M 4.015625 -5.984375 L 4.015625 0 L 1.140625 0 L 1.140625 -10.359375 L 3.890625 -10.359375 L 3.890625 -8.53125 L 4 -8.53125 C 4.238281 -9.132812 4.625 -9.609375 5.15625 -9.953125 C 5.695312 -10.304688 6.351562 -10.484375 7.125 -10.484375 C 8.195312 -10.484375 9.054688 -10.132812 9.703125 -9.4375 C 10.359375 -8.75 10.6875 -7.800781 10.6875 -6.59375 L 10.6875 0 L 7.8125 0 L 7.8125 -6.078125 C 7.820312 -6.710938 7.660156 -7.207031 7.328125 -7.5625 C 7.003906 -7.925781 6.554688 -8.109375 5.984375 -8.109375 C 5.398438 -8.109375 4.925781 -7.921875 4.5625 -7.546875 C 4.207031 -7.171875 4.023438 -6.648438 4.015625 -5.984375 Z M 4.015625 -5.984375 "/></g></g><g style="fill:#000000;fill-opacity:1;"><g transform="translate(324.987579, 424.719607)"><path style="stroke:none" d="M 4.09375 0.203125 C 3.101562 0.203125 2.28125 -0.0546875 1.625 -0.578125 C 0.976562 -1.097656 0.65625 -1.867188 0.65625 -2.890625 C 0.65625 -3.660156 0.835938 -4.265625 1.203125 -4.703125 C 1.566406 -5.148438 2.046875 -5.472656 2.640625 -5.671875 C 3.234375 -5.878906 3.867188 -6.015625 4.546875 -6.078125 C 5.453125 -6.171875 6.097656 -6.265625 6.484375 -6.359375 C 6.867188 -6.460938 7.0625 -6.679688 7.0625 -7.015625 L 7.0625 -7.046875 C 7.0625 -7.472656 6.925781 -7.800781 6.65625 -8.03125 C 6.382812 -8.269531 6.003906 -8.390625 5.515625 -8.390625 C 5.003906 -8.390625 4.59375 -8.273438 4.28125 -8.046875 C 3.976562 -7.828125 3.78125 -7.546875 3.6875 -7.203125 L 1.03125 -7.421875 C 1.226562 -8.359375 1.71875 -9.101562 2.5 -9.65625 C 3.28125 -10.207031 4.289062 -10.484375 5.53125 -10.484375 C 6.300781 -10.484375 7.019531 -10.363281 7.6875 -10.125 C 8.363281 -9.882812 8.90625 -9.503906 9.3125 -8.984375 C 9.726562 -8.472656 9.9375 -7.804688 9.9375 -6.984375 L 9.9375 0 L 7.203125 0 L 7.203125 -1.4375 L 7.125 -1.4375 C 6.875 -0.957031 6.5 -0.5625 6 -0.25 C 5.5 0.0507812 4.863281 0.203125 4.09375 0.203125 Z M 4.921875 -1.78125 C 5.546875 -1.78125 6.0625 -1.960938 6.46875 -2.328125 C 6.875 -2.703125 7.078125 -3.160156 7.078125 -3.703125 L 7.078125 -4.796875 C 6.960938 -4.722656 6.785156 -4.65625 6.546875 -4.59375 C 6.316406 -4.539062 6.066406 -4.488281 5.796875 -4.4375 C 5.535156 -4.394531 5.296875 -4.359375 5.078125 -4.328125 C 4.578125 -4.265625 4.171875 -4.125 3.859375 -3.90625 C 3.554688 -3.695312 3.40625 -3.390625 3.40625 -2.984375 C 3.40625 -2.585938 3.546875 -2.285156 3.828125 -2.078125 C 4.117188 -1.878906 4.484375 -1.78125 4.921875 -1.78125 Z M 4.921875 -1.78125 "/></g></g><g style="fill:#000000;fill-opacity:1;"><g transform="translate(336.0015, 424.719607)"><path style="stroke:none" d="M 5.8125 4.03125 C 4.414062 4.03125 3.316406 3.753906 2.515625 3.203125 C 1.722656 2.660156 1.242188 2 1.078125 1.21875 L 3.734375 0.859375 C 3.847656 1.140625 4.070312 1.394531 4.40625 1.625 C 4.75 1.851562 5.238281 1.96875 5.875 1.96875 C 6.5 1.96875 7.015625 1.816406 7.421875 1.515625 C 7.828125 1.222656 8.03125 0.738281 8.03125 0.0625 L 8.03125 -1.828125 L 7.921875 -1.828125 C 7.722656 -1.398438 7.382812 -1.007812 6.90625 -0.65625 C 6.4375 -0.3125 5.789062 -0.140625 4.96875 -0.140625 C 4.1875 -0.140625 3.476562 -0.320312 2.84375 -0.6875 C 2.207031 -1.050781 1.703125 -1.609375 1.328125 -2.359375 C 0.953125 -3.109375 0.765625 -4.054688 0.765625 -5.203125 C 0.765625 -6.378906 0.957031 -7.359375 1.34375 -8.140625 C 1.726562 -8.921875 2.238281 -9.503906 2.875 -9.890625 C 3.507812 -10.285156 4.203125 -10.484375 4.953125 -10.484375 C 5.535156 -10.484375 6.019531 -10.382812 6.40625 -10.1875 C 6.800781 -10 7.117188 -9.757812 7.359375 -9.46875 C 7.597656 -9.1875 7.785156 -8.898438 7.921875 -8.609375 L 8.015625 -8.609375 L 8.015625 -10.359375 L 10.875 -10.359375 L 10.875 0.09375 C 10.875 0.957031 10.65625 1.679688 10.21875 2.265625 C 9.789062 2.847656 9.195312 3.285156 8.4375 3.578125 C 7.675781 3.878906 6.800781 4.03125 5.8125 4.03125 Z M 5.875 -2.3125 C 6.5625 -2.3125 7.09375 -2.566406 7.46875 -3.078125 C 7.851562 -3.585938 8.046875 -4.300781 8.046875 -5.21875 C 8.046875 -6.125 7.859375 -6.847656 7.484375 -7.390625 C 7.109375 -7.929688 6.570312 -8.203125 5.875 -8.203125 C 5.164062 -8.203125 4.625 -7.921875 4.25 -7.359375 C 3.875 -6.804688 3.6875 -6.09375 3.6875 -5.21875 C 3.6875 -4.320312 3.875 -3.613281 4.25 -3.09375 C 4.625 -2.570312 5.164062 -2.3125 5.875 -2.3125 Z M 5.875 -2.3125 "/></g></g><g style="fill:#000000;fill-opacity:1;"><g transform="translate(348.019757, 424.719607)"><path style="stroke:none" d="M 5.859375 0.203125 C 4.804688 0.203125 3.894531 -0.0078125 3.125 -0.4375 C 2.351562 -0.875 1.757812 -1.488281 1.34375 -2.28125 C 0.9375 -3.082031 0.734375 -4.03125 0.734375 -5.125 C 0.734375 -6.195312 0.9375 -7.132812 1.34375 -7.9375 C 1.757812 -8.738281 2.34375 -9.363281 3.09375 -9.8125 C 3.851562 -10.257812 4.738281 -10.484375 5.75 -10.484375 C 6.664062 -10.484375 7.488281 -10.289062 8.21875 -9.90625 C 8.957031 -9.519531 9.539062 -8.9375 9.96875 -8.15625 C 10.40625 -7.375 10.625 -6.398438 10.625 -5.234375 L 10.625 -4.4375 L 3.5625 -4.4375 C 3.5625 -3.664062 3.769531 -3.054688 4.1875 -2.609375 C 4.613281 -2.160156 5.1875 -1.9375 5.90625 -1.9375 C 6.394531 -1.9375 6.8125 -2.035156 7.15625 -2.234375 C 7.507812 -2.441406 7.757812 -2.742188 7.90625 -3.140625 L 10.5625 -2.96875 C 10.351562 -2.007812 9.835938 -1.238281 9.015625 -0.65625 C 8.191406 -0.0820312 7.140625 0.203125 5.859375 0.203125 Z M 3.5625 -6.21875 L 7.921875 -6.21875 C 7.910156 -6.832031 7.707031 -7.335938 7.3125 -7.734375 C 6.925781 -8.140625 6.421875 -8.34375 5.796875 -8.34375 C 5.160156 -8.34375 4.632812 -8.132812 4.21875 -7.71875 C 3.8125 -7.3125 3.59375 -6.8125 3.5625 -6.21875 Z M 3.5625 -6.21875 "/></g></g><g clip-rule="nonzero" clip-path="url(#59a06581bd)"><g clip-rule="nonzero" clip-path="url(#b747088cae)"><path style=" stroke:none;fill-rule:nonzero;fill:#71dbf4;fill-opacity:1;" d="M 102.335938 108.136719 L 220.511719 108.136719 L 220.511719 226.3125 L 102.335938 226.3125 Z M 102.335938 108.136719 "/></g></g><g style="fill:#000000;fill-opacity:1;"><g transform="translate(126.919117, 173.595379)"><path style="stroke:none" d="M 1.203125 0 L 1.203125 -13.8125 L 6.640625 -13.8125 C 7.691406 -13.8125 8.582031 -13.609375 9.3125 -13.203125 C 10.050781 -12.804688 10.613281 -12.253906 11 -11.546875 C 11.394531 -10.847656 11.59375 -10.039062 11.59375 -9.125 C 11.59375 -8.207031 11.394531 -7.398438 11 -6.703125 C 10.601562 -6.003906 10.03125 -5.457031 9.28125 -5.0625 C 8.53125 -4.664062 7.628906 -4.46875 6.578125 -4.46875 L 4.125 -4.46875 L 4.125 0 Z M 4.125 -6.8125 L 6.09375 -6.8125 C 6.9375 -6.8125 7.5625 -7.023438 7.96875 -7.453125 C 8.382812 -7.890625 8.59375 -8.445312 8.59375 -9.125 C 8.59375 -9.8125 8.382812 -10.363281 7.96875 -10.78125 C 7.5625 -11.207031 6.9375 -11.421875 6.09375 -11.421875 L 4.125 -11.421875 Z M 4.125 -6.8125 "/></g></g><g style="fill:#000000;fill-opacity:1;"><g transform="translate(139.213738, 173.595379)"><path style="stroke:none" d="M 7.78125 -4.40625 L 7.78125 -10.359375 L 10.65625 -10.359375 L 10.65625 0 L 7.90625 0 L 7.90625 -1.875 L 7.796875 -1.875 C 7.554688 -1.269531 7.164062 -0.78125 6.625 -0.40625 C 6.082031 -0.0390625 5.425781 0.140625 4.65625 0.140625 C 3.613281 0.140625 2.769531 -0.207031 2.125 -0.90625 C 1.476562 -1.601562 1.148438 -2.554688 1.140625 -3.765625 L 1.140625 -10.359375 L 4.015625 -10.359375 L 4.015625 -4.28125 C 4.023438 -3.664062 4.191406 -3.179688 4.515625 -2.828125 C 4.835938 -2.472656 5.269531 -2.296875 5.8125 -2.296875 C 6.332031 -2.296875 6.789062 -2.472656 7.1875 -2.828125 C 7.59375 -3.191406 7.789062 -3.71875 7.78125 -4.40625 Z M 7.78125 -4.40625 "/></g></g><g style="fill:#000000;fill-opacity:1;"><g transform="translate(151.016294, 173.595379)"><path style="stroke:none" d="M 1.203125 0 L 1.203125 -13.8125 L 4.078125 -13.8125 L 4.078125 -8.609375 L 4.15625 -8.609375 C 4.289062 -8.898438 4.472656 -9.1875 4.703125 -9.46875 C 4.941406 -9.757812 5.257812 -10 5.65625 -10.1875 C 6.050781 -10.382812 6.535156 -10.484375 7.109375 -10.484375 C 7.867188 -10.484375 8.5625 -10.285156 9.1875 -9.890625 C 9.820312 -9.503906 10.332031 -8.914062 10.71875 -8.125 C 11.101562 -7.332031 11.296875 -6.34375 11.296875 -5.15625 C 11.296875 -4.007812 11.109375 -3.035156 10.734375 -2.234375 C 10.367188 -1.441406 9.867188 -0.84375 9.234375 -0.4375 C 8.597656 -0.03125 7.882812 0.171875 7.09375 0.171875 C 6.539062 0.171875 6.066406 0.078125 5.671875 -0.109375 C 5.285156 -0.296875 4.96875 -0.53125 4.71875 -0.8125 C 4.476562 -1.09375 4.289062 -1.375 4.15625 -1.65625 L 4.03125 -1.65625 L 4.03125 0 Z M 4.015625 -5.171875 C 4.015625 -4.253906 4.203125 -3.515625 4.578125 -2.953125 C 4.960938 -2.390625 5.5 -2.109375 6.1875 -2.109375 C 6.894531 -2.109375 7.429688 -2.394531 7.796875 -2.96875 C 8.171875 -3.539062 8.359375 -4.273438 8.359375 -5.171875 C 8.359375 -6.078125 8.171875 -6.804688 7.796875 -7.359375 C 7.429688 -7.921875 6.894531 -8.203125 6.1875 -8.203125 C 5.488281 -8.203125 4.953125 -7.925781 4.578125 -7.375 C 4.203125 -6.832031 4.015625 -6.097656 4.015625 -5.171875 Z M 4.015625 -5.171875 "/></g></g><g style="fill:#000000;fill-opacity:1;"><g transform="translate(163.074996, 173.595379)"><path style="stroke:none" d="M 4.015625 -13.8125 L 4.015625 0 L 1.140625 0 L 1.140625 -13.8125 Z M 4.015625 -13.8125 "/></g></g><g style="fill:#000000;fill-opacity:1;"><g transform="translate(168.238194, 173.595379)"><path style="stroke:none" d="M 1.140625 0 L 1.140625 -10.359375 L 4.015625 -10.359375 L 4.015625 0 Z M 2.59375 -11.6875 C 2.164062 -11.6875 1.800781 -11.828125 1.5 -12.109375 C 1.195312 -12.398438 1.046875 -12.742188 1.046875 -13.140625 C 1.046875 -13.546875 1.195312 -13.890625 1.5 -14.171875 C 1.800781 -14.453125 2.164062 -14.59375 2.59375 -14.59375 C 3.019531 -14.59375 3.382812 -14.453125 3.6875 -14.171875 C 4 -13.890625 4.15625 -13.546875 4.15625 -13.140625 C 4.15625 -12.742188 4 -12.398438 3.6875 -12.109375 C 3.382812 -11.828125 3.019531 -11.6875 2.59375 -11.6875 Z M 2.59375 -11.6875 "/></g></g><g style="fill:#000000;fill-opacity:1;"><g transform="translate(173.401392, 173.595379)"><path style="stroke:none" d="M 9.765625 -7.40625 L 7.125 -7.234375 C 7.0625 -7.566406 6.878906 -7.851562 6.578125 -8.09375 C 6.285156 -8.332031 5.894531 -8.453125 5.40625 -8.453125 C 4.957031 -8.453125 4.578125 -8.359375 4.265625 -8.171875 C 3.960938 -7.984375 3.8125 -7.734375 3.8125 -7.421875 C 3.8125 -7.179688 3.910156 -6.972656 4.109375 -6.796875 C 4.304688 -6.628906 4.644531 -6.492188 5.125 -6.390625 L 7 -6.015625 C 8.988281 -5.609375 9.988281 -4.671875 10 -3.203125 C 10 -2.523438 9.796875 -1.929688 9.390625 -1.421875 C 8.992188 -0.910156 8.453125 -0.507812 7.765625 -0.21875 C 7.078125 0.0625 6.285156 0.203125 5.390625 0.203125 C 4.015625 0.203125 2.921875 -0.0820312 2.109375 -0.65625 C 1.296875 -1.226562 0.820312 -2.007812 0.6875 -3 L 3.515625 -3.140625 C 3.597656 -2.722656 3.800781 -2.40625 4.125 -2.1875 C 4.457031 -1.976562 4.878906 -1.875 5.390625 -1.875 C 5.890625 -1.875 6.296875 -1.96875 6.609375 -2.15625 C 6.921875 -2.351562 7.078125 -2.609375 7.078125 -2.921875 C 7.066406 -3.429688 6.625 -3.773438 5.75 -3.953125 L 3.953125 -4.3125 C 1.953125 -4.707031 0.957031 -5.691406 0.96875 -7.265625 C 0.957031 -8.265625 1.351562 -9.050781 2.15625 -9.625 C 2.957031 -10.195312 4.023438 -10.484375 5.359375 -10.484375 C 6.660156 -10.484375 7.6875 -10.207031 8.4375 -9.65625 C 9.195312 -9.101562 9.640625 -8.351562 9.765625 -7.40625 Z M 9.765625 -7.40625 "/></g></g><g style="fill:#000000;fill-opacity:1;"><g transform="translate(184.064816, 173.595379)"><path style="stroke:none" d="M 4.015625 -5.984375 L 4.015625 0 L 1.140625 0 L 1.140625 -13.8125 L 3.9375 -13.8125 L 3.9375 -8.53125 L 4.0625 -8.53125 C 4.300781 -9.132812 4.675781 -9.609375 5.1875 -9.953125 C 5.707031 -10.304688 6.363281 -10.484375 7.15625 -10.484375 C 8.226562 -10.484375 9.09375 -10.132812 9.75 -9.4375 C 10.40625 -8.75 10.734375 -7.800781 10.734375 -6.59375 L 10.734375 0 L 7.859375 0 L 7.859375 -6.078125 C 7.867188 -6.710938 7.707031 -7.207031 7.375 -7.5625 C 7.050781 -7.925781 6.597656 -8.109375 6.015625 -8.109375 C 5.429688 -8.109375 4.953125 -7.921875 4.578125 -7.546875 C 4.210938 -7.171875 4.023438 -6.648438 4.015625 -5.984375 Z M 4.015625 -5.984375 "/></g></g><g clip-rule="nonzero" clip-path="url(#6ef863705a)"><g clip-rule="nonzero" clip-path="url(#e4d883b373)"><path style=" stroke:none;fill-rule:nonzero;fill:#71dbf4;fill-opacity:1;" d="M 109.921875 268.789062 L 228.097656 268.789062 L 228.097656 386.964844 L 109.921875 386.964844 Z M 109.921875 268.789062 "/></g></g><g style="fill:#000000;fill-opacity:1;"><g transform="translate(126.131079, 312.515368)"><path style="stroke:none" d="M 4.125 -13.8125 L 4.125 0 L 1.203125 0 L 1.203125 -13.8125 Z M 4.125 -13.8125 "/></g></g><g style="fill:#000000;fill-opacity:1;"><g transform="translate(131.456049, 312.515368)"><path style="stroke:none" d="M 4.015625 -5.984375 L 4.015625 0 L 1.140625 0 L 1.140625 -10.359375 L 3.890625 -10.359375 L 3.890625 -8.53125 L 4 -8.53125 C 4.238281 -9.132812 4.625 -9.609375 5.15625 -9.953125 C 5.695312 -10.304688 6.351562 -10.484375 7.125 -10.484375 C 8.195312 -10.484375 9.054688 -10.132812 9.703125 -9.4375 C 10.359375 -8.75 10.6875 -7.800781 10.6875 -6.59375 L 10.6875 0 L 7.8125 0 L 7.8125 -6.078125 C 7.820312 -6.710938 7.660156 -7.207031 7.328125 -7.5625 C 7.003906 -7.925781 6.554688 -8.109375 5.984375 -8.109375 C 5.398438 -8.109375 4.925781 -7.921875 4.5625 -7.546875 C 4.207031 -7.171875 4.023438 -6.648438 4.015625 -5.984375 Z M 4.015625 -5.984375 "/></g></g><g style="fill:#000000;fill-opacity:1;"><g transform="translate(143.258605, 312.515368)"><path style="stroke:none" d="M 6.65625 -10.359375 L 6.65625 -8.203125 L 4.703125 -8.203125 L 4.703125 -3.1875 C 4.703125 -2.789062 4.789062 -2.519531 4.96875 -2.375 C 5.15625 -2.238281 5.390625 -2.171875 5.671875 -2.171875 C 5.804688 -2.171875 5.941406 -2.179688 6.078125 -2.203125 C 6.210938 -2.234375 6.316406 -2.253906 6.390625 -2.265625 L 6.84375 -0.125 C 6.695312 -0.0820312 6.492188 -0.03125 6.234375 0.03125 C 5.972656 0.09375 5.65625 0.128906 5.28125 0.140625 C 4.238281 0.179688 3.398438 -0.0390625 2.765625 -0.53125 C 2.140625 -1.03125 1.828125 -1.785156 1.828125 -2.796875 L 1.828125 -8.203125 L 0.421875 -8.203125 L 0.421875 -10.359375 L 1.828125 -10.359375 L 1.828125 -12.828125 L 4.703125 -12.828125 L 4.703125 -10.359375 Z M 6.65625 -10.359375 "/></g></g><g style="fill:#000000;fill-opacity:1;"><g transform="translate(150.632681, 312.515368)"><path style="stroke:none" d="M 5.859375 0.203125 C 4.804688 0.203125 3.894531 -0.0078125 3.125 -0.4375 C 2.351562 -0.875 1.757812 -1.488281 1.34375 -2.28125 C 0.9375 -3.082031 0.734375 -4.03125 0.734375 -5.125 C 0.734375 -6.195312 0.9375 -7.132812 1.34375 -7.9375 C 1.757812 -8.738281 2.34375 -9.363281 3.09375 -9.8125 C 3.851562 -10.257812 4.738281 -10.484375 5.75 -10.484375 C 6.664062 -10.484375 7.488281 -10.289062 8.21875 -9.90625 C 8.957031 -9.519531 9.539062 -8.9375 9.96875 -8.15625 C 10.40625 -7.375 10.625 -6.398438 10.625 -5.234375 L 10.625 -4.4375 L 3.5625 -4.4375 C 3.5625 -3.664062 3.769531 -3.054688 4.1875 -2.609375 C 4.613281 -2.160156 5.1875 -1.9375 5.90625 -1.9375 C 6.394531 -1.9375 6.8125 -2.035156 7.15625 -2.234375 C 7.507812 -2.441406 7.757812 -2.742188 7.90625 -3.140625 L 10.5625 -2.96875 C 10.351562 -2.007812 9.835938 -1.238281 9.015625 -0.65625 C 8.191406 -0.0820312 7.140625 0.203125 5.859375 0.203125 Z M 3.5625 -6.21875 L 7.921875 -6.21875 C 7.910156 -6.832031 7.707031 -7.335938 7.3125 -7.734375 C 6.925781 -8.140625 6.421875 -8.34375 5.796875 -8.34375 C 5.160156 -8.34375 4.632812 -8.132812 4.21875 -7.71875 C 3.8125 -7.3125 3.59375 -6.8125 3.5625 -6.21875 Z M 3.5625 -6.21875 "/></g></g><g style="fill:#000000;fill-opacity:1;"><g transform="translate(161.976895, 312.515368)"><path style="stroke:none" d="M 5.8125 4.03125 C 4.414062 4.03125 3.316406 3.753906 2.515625 3.203125 C 1.722656 2.660156 1.242188 2 1.078125 1.21875 L 3.734375 0.859375 C 3.847656 1.140625 4.070312 1.394531 4.40625 1.625 C 4.75 1.851562 5.238281 1.96875 5.875 1.96875 C 6.5 1.96875 7.015625 1.816406 7.421875 1.515625 C 7.828125 1.222656 8.03125 0.738281 8.03125 0.0625 L 8.03125 -1.828125 L 7.921875 -1.828125 C 7.722656 -1.398438 7.382812 -1.007812 6.90625 -0.65625 C 6.4375 -0.3125 5.789062 -0.140625 4.96875 -0.140625 C 4.1875 -0.140625 3.476562 -0.320312 2.84375 -0.6875 C 2.207031 -1.050781 1.703125 -1.609375 1.328125 -2.359375 C 0.953125 -3.109375 0.765625 -4.054688 0.765625 -5.203125 C 0.765625 -6.378906 0.957031 -7.359375 1.34375 -8.140625 C 1.726562 -8.921875 2.238281 -9.503906 2.875 -9.890625 C 3.507812 -10.285156 4.203125 -10.484375 4.953125 -10.484375 C 5.535156 -10.484375 6.019531 -10.382812 6.40625 -10.1875 C 6.800781 -10 7.117188 -9.757812 7.359375 -9.46875 C 7.597656 -9.1875 7.785156 -8.898438 7.921875 -8.609375 L 8.015625 -8.609375 L 8.015625 -10.359375 L 10.875 -10.359375 L 10.875 0.09375 C 10.875 0.957031 10.65625 1.679688 10.21875 2.265625 C 9.789062 2.847656 9.195312 3.285156 8.4375 3.578125 C 7.675781 3.878906 6.800781 4.03125 5.8125 4.03125 Z M 5.875 -2.3125 C 6.5625 -2.3125 7.09375 -2.566406 7.46875 -3.078125 C 7.851562 -3.585938 8.046875 -4.300781 8.046875 -5.21875 C 8.046875 -6.125 7.859375 -6.847656 7.484375 -7.390625 C 7.109375 -7.929688 6.570312 -8.203125 5.875 -8.203125 C 5.164062 -8.203125 4.625 -7.921875 4.25 -7.359375 C 3.875 -6.804688 3.6875 -6.09375 3.6875 -5.21875 C 3.6875 -4.320312 3.875 -3.613281 4.25 -3.09375 C 4.625 -2.570312 5.164062 -2.3125 5.875 -2.3125 Z M 5.875 -2.3125 "/></g></g><g style="fill:#000000;fill-opacity:1;"><g transform="translate(173.995151, 312.515368)"><path style="stroke:none" d="M 1.140625 0 L 1.140625 -10.359375 L 3.9375 -10.359375 L 3.9375 -8.546875 L 4.03125 -8.546875 C 4.226562 -9.191406 4.546875 -9.675781 4.984375 -10 C 5.429688 -10.332031 5.945312 -10.5 6.53125 -10.5 C 6.800781 -10.5 7.054688 -10.460938 7.296875 -10.390625 C 7.535156 -10.328125 7.75 -10.238281 7.9375 -10.125 L 7.078125 -7.75 C 6.941406 -7.820312 6.789062 -7.878906 6.625 -7.921875 C 6.46875 -7.972656 6.289062 -8 6.09375 -8 C 5.519531 -8 5.03125 -7.800781 4.625 -7.40625 C 4.226562 -7.007812 4.023438 -6.492188 4.015625 -5.859375 L 4.015625 0 Z M 1.140625 0 "/></g></g><g style="fill:#000000;fill-opacity:1;"><g transform="translate(182.130898, 312.515368)"><path style="stroke:none" d="M 4.09375 0.203125 C 3.101562 0.203125 2.28125 -0.0546875 1.625 -0.578125 C 0.976562 -1.097656 0.65625 -1.867188 0.65625 -2.890625 C 0.65625 -3.660156 0.835938 -4.265625 1.203125 -4.703125 C 1.566406 -5.148438 2.046875 -5.472656 2.640625 -5.671875 C 3.234375 -5.878906 3.867188 -6.015625 4.546875 -6.078125 C 5.453125 -6.171875 6.097656 -6.265625 6.484375 -6.359375 C 6.867188 -6.460938 7.0625 -6.679688 7.0625 -7.015625 L 7.0625 -7.046875 C 7.0625 -7.472656 6.925781 -7.800781 6.65625 -8.03125 C 6.382812 -8.269531 6.003906 -8.390625 5.515625 -8.390625 C 5.003906 -8.390625 4.59375 -8.273438 4.28125 -8.046875 C 3.976562 -7.828125 3.78125 -7.546875 3.6875 -7.203125 L 1.03125 -7.421875 C 1.226562 -8.359375 1.71875 -9.101562 2.5 -9.65625 C 3.28125 -10.207031 4.289062 -10.484375 5.53125 -10.484375 C 6.300781 -10.484375 7.019531 -10.363281 7.6875 -10.125 C 8.363281 -9.882812 8.90625 -9.503906 9.3125 -8.984375 C 9.726562 -8.472656 9.9375 -7.804688 9.9375 -6.984375 L 9.9375 0 L 7.203125 0 L 7.203125 -1.4375 L 7.125 -1.4375 C 6.875 -0.957031 6.5 -0.5625 6 -0.25 C 5.5 0.0507812 4.863281 0.203125 4.09375 0.203125 Z M 4.921875 -1.78125 C 5.546875 -1.78125 6.0625 -1.960938 6.46875 -2.328125 C 6.875 -2.703125 7.078125 -3.160156 7.078125 -3.703125 L 7.078125 -4.796875 C 6.960938 -4.722656 6.785156 -4.65625 6.546875 -4.59375 C 6.316406 -4.539062 6.066406 -4.488281 5.796875 -4.4375 C 5.535156 -4.394531 5.296875 -4.359375 5.078125 -4.328125 C 4.578125 -4.265625 4.171875 -4.125 3.859375 -3.90625 C 3.554688 -3.695312 3.40625 -3.390625 3.40625 -2.984375 C 3.40625 -2.585938 3.546875 -2.285156 3.828125 -2.078125 C 4.117188 -1.878906 4.484375 -1.78125 4.921875 -1.78125 Z M 4.921875 -1.78125 "/></g></g><g style="fill:#000000;fill-opacity:1;"><g transform="translate(193.144819, 312.515368)"><path style="stroke:none" d="M 6.65625 -10.359375 L 6.65625 -8.203125 L 4.703125 -8.203125 L 4.703125 -3.1875 C 4.703125 -2.789062 4.789062 -2.519531 4.96875 -2.375 C 5.15625 -2.238281 5.390625 -2.171875 5.671875 -2.171875 C 5.804688 -2.171875 5.941406 -2.179688 6.078125 -2.203125 C 6.210938 -2.234375 6.316406 -2.253906 6.390625 -2.265625 L 6.84375 -0.125 C 6.695312 -0.0820312 6.492188 -0.03125 6.234375 0.03125 C 5.972656 0.09375 5.65625 0.128906 5.28125 0.140625 C 4.238281 0.179688 3.398438 -0.0390625 2.765625 -0.53125 C 2.140625 -1.03125 1.828125 -1.785156 1.828125 -2.796875 L 1.828125 -8.203125 L 0.421875 -8.203125 L 0.421875 -10.359375 L 1.828125 -10.359375 L 1.828125 -12.828125 L 4.703125 -12.828125 L 4.703125 -10.359375 Z M 6.65625 -10.359375 "/></g></g><g style="fill:#000000;fill-opacity:1;"><g transform="translate(200.518895, 312.515368)"><path style="stroke:none" d="M 5.859375 0.203125 C 4.804688 0.203125 3.894531 -0.0078125 3.125 -0.4375 C 2.351562 -0.875 1.757812 -1.488281 1.34375 -2.28125 C 0.9375 -3.082031 0.734375 -4.03125 0.734375 -5.125 C 0.734375 -6.195312 0.9375 -7.132812 1.34375 -7.9375 C 1.757812 -8.738281 2.34375 -9.363281 3.09375 -9.8125 C 3.851562 -10.257812 4.738281 -10.484375 5.75 -10.484375 C 6.664062 -10.484375 7.488281 -10.289062 8.21875 -9.90625 C 8.957031 -9.519531 9.539062 -8.9375 9.96875 -8.15625 C 10.40625 -7.375 10.625 -6.398438 10.625 -5.234375 L 10.625 -4.4375 L 3.5625 -4.4375 C 3.5625 -3.664062 3.769531 -3.054688 4.1875 -2.609375 C 4.613281 -2.160156 5.1875 -1.9375 5.90625 -1.9375 C 6.394531 -1.9375 6.8125 -2.035156 7.15625 -2.234375 C 7.507812 -2.441406 7.757812 -2.742188 7.90625 -3.140625 L 10.5625 -2.96875 C 10.351562 -2.007812 9.835938 -1.238281 9.015625 -0.65625 C 8.191406 -0.0820312 7.140625 0.203125 5.859375 0.203125 Z M 3.5625 -6.21875 L 7.921875 -6.21875 C 7.910156 -6.832031 7.707031 -7.335938 7.3125 -7.734375 C 6.925781 -8.140625 6.421875 -8.34375 5.796875 -8.34375 C 5.160156 -8.34375 4.632812 -8.132812 4.21875 -7.71875 C 3.8125 -7.3125 3.59375 -6.8125 3.5625 -6.21875 Z M 3.5625 -6.21875 "/></g></g><g style="fill:#000000;fill-opacity:1;"><g transform="translate(151.564255, 338.744795)"><path style="stroke:none" d="M 4.09375 0.203125 C 3.101562 0.203125 2.28125 -0.0546875 1.625 -0.578125 C 0.976562 -1.097656 0.65625 -1.867188 0.65625 -2.890625 C 0.65625 -3.660156 0.835938 -4.265625 1.203125 -4.703125 C 1.566406 -5.148438 2.046875 -5.472656 2.640625 -5.671875 C 3.234375 -5.878906 3.867188 -6.015625 4.546875 -6.078125 C 5.453125 -6.171875 6.097656 -6.265625 6.484375 -6.359375 C 6.867188 -6.460938 7.0625 -6.679688 7.0625 -7.015625 L 7.0625 -7.046875 C 7.0625 -7.472656 6.925781 -7.800781 6.65625 -8.03125 C 6.382812 -8.269531 6.003906 -8.390625 5.515625 -8.390625 C 5.003906 -8.390625 4.59375 -8.273438 4.28125 -8.046875 C 3.976562 -7.828125 3.78125 -7.546875 3.6875 -7.203125 L 1.03125 -7.421875 C 1.226562 -8.359375 1.71875 -9.101562 2.5 -9.65625 C 3.28125 -10.207031 4.289062 -10.484375 5.53125 -10.484375 C 6.300781 -10.484375 7.019531 -10.363281 7.6875 -10.125 C 8.363281 -9.882812 8.90625 -9.503906 9.3125 -8.984375 C 9.726562 -8.472656 9.9375 -7.804688 9.9375 -6.984375 L 9.9375 0 L 7.203125 0 L 7.203125 -1.4375 L 7.125 -1.4375 C 6.875 -0.957031 6.5 -0.5625 6 -0.25 C 5.5 0.0507812 4.863281 0.203125 4.09375 0.203125 Z M 4.921875 -1.78125 C 5.546875 -1.78125 6.0625 -1.960938 6.46875 -2.328125 C 6.875 -2.703125 7.078125 -3.160156 7.078125 -3.703125 L 7.078125 -4.796875 C 6.960938 -4.722656 6.785156 -4.65625 6.546875 -4.59375 C 6.316406 -4.539062 6.066406 -4.488281 5.796875 -4.4375 C 5.535156 -4.394531 5.296875 -4.359375 5.078125 -4.328125 C 4.578125 -4.265625 4.171875 -4.125 3.859375 -3.90625 C 3.554688 -3.695312 3.40625 -3.390625 3.40625 -2.984375 C 3.40625 -2.585938 3.546875 -2.285156 3.828125 -2.078125 C 4.117188 -1.878906 4.484375 -1.78125 4.921875 -1.78125 Z M 4.921875 -1.78125 "/></g></g><g style="fill:#000000;fill-opacity:1;"><g transform="translate(162.578176, 338.744795)"><path style="stroke:none" d="M 4.015625 -5.984375 L 4.015625 0 L 1.140625 0 L 1.140625 -10.359375 L 3.890625 -10.359375 L 3.890625 -8.53125 L 4 -8.53125 C 4.238281 -9.132812 4.625 -9.609375 5.15625 -9.953125 C 5.695312 -10.304688 6.351562 -10.484375 7.125 -10.484375 C 8.195312 -10.484375 9.054688 -10.132812 9.703125 -9.4375 C 10.359375 -8.75 10.6875 -7.800781 10.6875 -6.59375 L 10.6875 0 L 7.8125 0 L 7.8125 -6.078125 C 7.820312 -6.710938 7.660156 -7.207031 7.328125 -7.5625 C 7.003906 -7.925781 6.554688 -8.109375 5.984375 -8.109375 C 5.398438 -8.109375 4.925781 -7.921875 4.5625 -7.546875 C 4.207031 -7.171875 4.023438 -6.648438 4.015625 -5.984375 Z M 4.015625 -5.984375 "/></g></g><g style="fill:#000000;fill-opacity:1;"><g transform="translate(174.380732, 338.744795)"><path style="stroke:none" d="M 4.96875 0.171875 C 4.175781 0.171875 3.460938 -0.03125 2.828125 -0.4375 C 2.191406 -0.84375 1.6875 -1.441406 1.3125 -2.234375 C 0.945312 -3.035156 0.765625 -4.007812 0.765625 -5.15625 C 0.765625 -6.34375 0.957031 -7.332031 1.34375 -8.125 C 1.726562 -8.914062 2.238281 -9.503906 2.875 -9.890625 C 3.507812 -10.285156 4.203125 -10.484375 4.953125 -10.484375 C 5.535156 -10.484375 6.019531 -10.382812 6.40625 -10.1875 C 6.789062 -10 7.101562 -9.757812 7.34375 -9.46875 C 7.59375 -9.1875 7.78125 -8.898438 7.90625 -8.609375 L 7.984375 -8.609375 L 7.984375 -13.8125 L 10.859375 -13.8125 L 10.859375 0 L 8.015625 0 L 8.015625 -1.65625 L 7.90625 -1.65625 C 7.769531 -1.375 7.578125 -1.09375 7.328125 -0.8125 C 7.085938 -0.53125 6.769531 -0.296875 6.375 -0.109375 C 5.988281 0.078125 5.519531 0.171875 4.96875 0.171875 Z M 5.875 -2.109375 C 6.5625 -2.109375 7.09375 -2.390625 7.46875 -2.953125 C 7.851562 -3.515625 8.046875 -4.253906 8.046875 -5.171875 C 8.046875 -6.097656 7.859375 -6.832031 7.484375 -7.375 C 7.109375 -7.925781 6.570312 -8.203125 5.875 -8.203125 C 5.164062 -8.203125 4.625 -7.921875 4.25 -7.359375 C 3.875 -6.804688 3.6875 -6.078125 3.6875 -5.171875 C 3.6875 -4.273438 3.875 -3.539062 4.25 -2.96875 C 4.625 -2.394531 5.164062 -2.109375 5.875 -2.109375 Z M 5.875 -2.109375 "/></g></g><g style="fill:#000000;fill-opacity:1;"><g transform="translate(142.735243, 364.974222)"><path style="stroke:none" d="M 9.765625 -7.40625 L 7.125 -7.234375 C 7.0625 -7.566406 6.878906 -7.851562 6.578125 -8.09375 C 6.285156 -8.332031 5.894531 -8.453125 5.40625 -8.453125 C 4.957031 -8.453125 4.578125 -8.359375 4.265625 -8.171875 C 3.960938 -7.984375 3.8125 -7.734375 3.8125 -7.421875 C 3.8125 -7.179688 3.910156 -6.972656 4.109375 -6.796875 C 4.304688 -6.628906 4.644531 -6.492188 5.125 -6.390625 L 7 -6.015625 C 8.988281 -5.609375 9.988281 -4.671875 10 -3.203125 C 10 -2.523438 9.796875 -1.929688 9.390625 -1.421875 C 8.992188 -0.910156 8.453125 -0.507812 7.765625 -0.21875 C 7.078125 0.0625 6.285156 0.203125 5.390625 0.203125 C 4.015625 0.203125 2.921875 -0.0820312 2.109375 -0.65625 C 1.296875 -1.226562 0.820312 -2.007812 0.6875 -3 L 3.515625 -3.140625 C 3.597656 -2.722656 3.800781 -2.40625 4.125 -2.1875 C 4.457031 -1.976562 4.878906 -1.875 5.390625 -1.875 C 5.890625 -1.875 6.296875 -1.96875 6.609375 -2.15625 C 6.921875 -2.351562 7.078125 -2.609375 7.078125 -2.921875 C 7.066406 -3.429688 6.625 -3.773438 5.75 -3.953125 L 3.953125 -4.3125 C 1.953125 -4.707031 0.957031 -5.691406 0.96875 -7.265625 C 0.957031 -8.265625 1.351562 -9.050781 2.15625 -9.625 C 2.957031 -10.195312 4.023438 -10.484375 5.359375 -10.484375 C 6.660156 -10.484375 7.6875 -10.207031 8.4375 -9.65625 C 9.195312 -9.101562 9.640625 -8.351562 9.765625 -7.40625 Z M 9.765625 -7.40625 "/></g></g><g style="fill:#000000;fill-opacity:1;"><g transform="translate(153.398666, 364.974222)"><path style="stroke:none" d="M 4.015625 -5.984375 L 4.015625 0 L 1.140625 0 L 1.140625 -13.8125 L 3.9375 -13.8125 L 3.9375 -8.53125 L 4.0625 -8.53125 C 4.300781 -9.132812 4.675781 -9.609375 5.1875 -9.953125 C 5.707031 -10.304688 6.363281 -10.484375 7.15625 -10.484375 C 8.226562 -10.484375 9.09375 -10.132812 9.75 -9.4375 C 10.40625 -8.75 10.734375 -7.800781 10.734375 -6.59375 L 10.734375 0 L 7.859375 0 L 7.859375 -6.078125 C 7.867188 -6.710938 7.707031 -7.207031 7.375 -7.5625 C 7.050781 -7.925781 6.597656 -8.109375 6.015625 -8.109375 C 5.429688 -8.109375 4.953125 -7.921875 4.578125 -7.546875 C 4.210938 -7.171875 4.023438 -6.648438 4.015625 -5.984375 Z M 4.015625 -5.984375 "/></g></g><g style="fill:#000000;fill-opacity:1;"><g transform="translate(165.248415, 364.974222)"><path style="stroke:none" d="M 4.09375 0.203125 C 3.101562 0.203125 2.28125 -0.0546875 1.625 -0.578125 C 0.976562 -1.097656 0.65625 -1.867188 0.65625 -2.890625 C 0.65625 -3.660156 0.835938 -4.265625 1.203125 -4.703125 C 1.566406 -5.148438 2.046875 -5.472656 2.640625 -5.671875 C 3.234375 -5.878906 3.867188 -6.015625 4.546875 -6.078125 C 5.453125 -6.171875 6.097656 -6.265625 6.484375 -6.359375 C 6.867188 -6.460938 7.0625 -6.679688 7.0625 -7.015625 L 7.0625 -7.046875 C 7.0625 -7.472656 6.925781 -7.800781 6.65625 -8.03125 C 6.382812 -8.269531 6.003906 -8.390625 5.515625 -8.390625 C 5.003906 -8.390625 4.59375 -8.273438 4.28125 -8.046875 C 3.976562 -7.828125 3.78125 -7.546875 3.6875 -7.203125 L 1.03125 -7.421875 C 1.226562 -8.359375 1.71875 -9.101562 2.5 -9.65625 C 3.28125 -10.207031 4.289062 -10.484375 5.53125 -10.484375 C 6.300781 -10.484375 7.019531 -10.363281 7.6875 -10.125 C 8.363281 -9.882812 8.90625 -9.503906 9.3125 -8.984375 C 9.726562 -8.472656 9.9375 -7.804688 9.9375 -6.984375 L 9.9375 0 L 7.203125 0 L 7.203125 -1.4375 L 7.125 -1.4375 C 6.875 -0.957031 6.5 -0.5625 6 -0.25 C 5.5 0.0507812 4.863281 0.203125 4.09375 0.203125 Z M 4.921875 -1.78125 C 5.546875 -1.78125 6.0625 -1.960938 6.46875 -2.328125 C 6.875 -2.703125 7.078125 -3.160156 7.078125 -3.703125 L 7.078125 -4.796875 C 6.960938 -4.722656 6.785156 -4.65625 6.546875 -4.59375 C 6.316406 -4.539062 6.066406 -4.488281 5.796875 -4.4375 C 5.535156 -4.394531 5.296875 -4.359375 5.078125 -4.328125 C 4.578125 -4.265625 4.171875 -4.125 3.859375 -3.90625 C 3.554688 -3.695312 3.40625 -3.390625 3.40625 -2.984375 C 3.40625 -2.585938 3.546875 -2.285156 3.828125 -2.078125 C 4.117188 -1.878906 4.484375 -1.78125 4.921875 -1.78125 Z M 4.921875 -1.78125 "/></g></g><g style="fill:#000000;fill-opacity:1;"><g transform="translate(176.262336, 364.974222)"><path style="stroke:none" d="M 1.140625 0 L 1.140625 -10.359375 L 3.9375 -10.359375 L 3.9375 -8.546875 L 4.03125 -8.546875 C 4.226562 -9.191406 4.546875 -9.675781 4.984375 -10 C 5.429688 -10.332031 5.945312 -10.5 6.53125 -10.5 C 6.800781 -10.5 7.054688 -10.460938 7.296875 -10.390625 C 7.535156 -10.328125 7.75 -10.238281 7.9375 -10.125 L 7.078125 -7.75 C 6.941406 -7.820312 6.789062 -7.878906 6.625 -7.921875 C 6.46875 -7.972656 6.289062 -8 6.09375 -8 C 5.519531 -8 5.03125 -7.800781 4.625 -7.40625 C 4.226562 -7.007812 4.023438 -6.492188 4.015625 -5.859375 L 4.015625 0 Z M 1.140625 0 "/></g></g><g style="fill:#000000;fill-opacity:1;"><g transform="translate(183.91273, 364.974222)"><path style="stroke:none" d="M 5.859375 0.203125 C 4.804688 0.203125 3.894531 -0.0078125 3.125 -0.4375 C 2.351562 -0.875 1.757812 -1.488281 1.34375 -2.28125 C 0.9375 -3.082031 0.734375 -4.03125 0.734375 -5.125 C 0.734375 -6.195312 0.9375 -7.132812 1.34375 -7.9375 C 1.757812 -8.738281 2.34375 -9.363281 3.09375 -9.8125 C 3.851562 -10.257812 4.738281 -10.484375 5.75 -10.484375 C 6.664062 -10.484375 7.488281 -10.289062 8.21875 -9.90625 C 8.957031 -9.519531 9.539062 -8.9375 9.96875 -8.15625 C 10.40625 -7.375 10.625 -6.398438 10.625 -5.234375 L 10.625 -4.4375 L 3.5625 -4.4375 C 3.5625 -3.664062 3.769531 -3.054688 4.1875 -2.609375 C 4.613281 -2.160156 5.1875 -1.9375 5.90625 -1.9375 C 6.394531 -1.9375 6.8125 -2.035156 7.15625 -2.234375 C 7.507812 -2.441406 7.757812 -2.742188 7.90625 -3.140625 L 10.5625 -2.96875 C 10.351562 -2.007812 9.835938 -1.238281 9.015625 -0.65625 C 8.191406 -0.0820312 7.140625 0.203125 5.859375 0.203125 Z M 3.5625 -6.21875 L 7.921875 -6.21875 C 7.910156 -6.832031 7.707031 -7.335938 7.3125 -7.734375 C 6.925781 -8.140625 6.421875 -8.34375 5.796875 -8.34375 C 5.160156 -8.34375 4.632812 -8.132812 4.21875 -7.71875 C 3.8125 -7.3125 3.59375 -6.8125 3.5625 -6.21875 Z M 3.5625 -6.21875 "/></g></g></g></svg>